<svg xmlns="http://www.w3.org/2000/svg" viewBox="0 0 249.41 77.03"><defs><style>.cls-1{fill:#2cb34a;}.cls-1,.cls-2,.cls-3,.cls-4{fill-rule:evenodd;}.cls-2{fill:#009ab6;}.cls-3{fill:#d61f28;}.cls-4{fill:#231f20;}</style></defs><g id="Layer_2" data-name="Layer 2"><g id="Слой_1" data-name="Слой 1"><path class="cls-1" d="M34.7,59.43C23,63.36,10.78,58.25,7.34,48s3.22-21.71,14.89-25.63a24.22,24.22,0,0,1,14.31-.46,25.51,25.51,0,0,0-16.67,0C7.5,26.1.43,38.27,4.08,49.12s16.65,16.26,29,12.1A25.51,25.51,0,0,0,46.37,51.15,24.19,24.19,0,0,1,34.7,59.43Z"/><path class="cls-2" d="M20.55,25.92c10-3.37,20.48,1,23.43,9.77s-2.76,18.59-12.75,22A20.75,20.75,0,0,1,19,58a21.79,21.79,0,0,0,14.27,0C43.84,54.46,49.9,44,46.77,34.75S32.52,20.82,21.93,24.39A21.81,21.81,0,0,0,10.56,33,20.76,20.76,0,0,1,20.55,25.92Z"/><path class="cls-3" d="M31.77,55.2c-8.71,2.93-17.86-.88-20.43-8.52s2.4-16.22,11.12-19.15c.44-.15.89-.28,1.33-.39a18.43,18.43,0,0,0-3.1.76c-8.85,3-13.9,11.68-11.29,19.43S21.29,59,30.14,56a19.77,19.77,0,0,0,2.93-1.27C32.65,54.89,32.22,55.05,31.77,55.2Z"/><path class="cls-1" d="M17.26,19.38s-3.34-7.27.55-11S23.86,3.33,24.73,0c0,0,10,12.18-5.11,20.17,0,0-2.54-7.58,3-11.75C22.61,8.42,16.49,10.34,17.26,19.38Z"/><path class="cls-1" d="M14.4,20.87S13.19,15.41,9.46,15,4,14.73,2.07,13.25c0,0-.39,11,11.36,9.05,0,0-1.79-5.28-6.62-5.27C6.81,17,11,15.51,14.4,20.87Z"/><path class="cls-1" d="M52.11,36.75A6.63,6.63,0,0,1,54.91,31,12,12,0,0,1,62,29a17.61,17.61,0,0,1,8.85,2.1v6.4A13,13,0,0,0,62.61,35c-2.23,0-3.35.58-3.35,1.69a1.73,1.73,0,0,0,1,1.41,10.36,10.36,0,0,0,2.53,1.05,30.22,30.22,0,0,1,3.3,1.17A25.22,25.22,0,0,1,69.4,42a7.36,7.36,0,0,1,2.54,2.57,7.27,7.27,0,0,1,1,3.86q0,8.06-10.53,8.05A20.55,20.55,0,0,1,52.3,54.05V47.47a16.56,16.56,0,0,0,9.59,3,8.25,8.25,0,0,0,3-.39,1.39,1.39,0,0,0,.91-1.38q0-1-1.41-1.77A22.43,22.43,0,0,0,61,45.49a39.13,39.13,0,0,1-4-1.56,8.82,8.82,0,0,1-3.43-2.74,7.1,7.1,0,0,1-1.41-4.44Zm23.55-7.19h6.4v9.63a7.27,7.27,0,0,1,5-1.92,6.79,6.79,0,0,1,5.38,2.09,7.75,7.75,0,0,1,1.85,5.33V55.9h-6.4V45.55a2.54,2.54,0,0,0-2.74-2.82,3.8,3.8,0,0,0-3.09,1.58V55.9h-6.4V29.56ZM104.37,55.9H98V37.84h6.39V55.9Zm.45-24.16a3.27,3.27,0,0,1-1,2.65,4.29,4.29,0,0,1-5.23,0,3.28,3.28,0,0,1-1-2.65,3.23,3.23,0,0,1,1.06-2.61,4.26,4.26,0,0,1,5.21,0,3.24,3.24,0,0,1,1,2.61Zm9.07,8.54q2.3-3.35,7.07-2.82v6.21a7.23,7.23,0,0,0-3.7.13,4.55,4.55,0,0,0-2.62,1.83V55.9h-6.39V37.84h5.64v2.44Zm16,15.62h-6.39V37.84h6.39V55.9Zm.45-24.16a3.27,3.27,0,0,1-1,2.65,4.29,4.29,0,0,1-5.23,0,3.28,3.28,0,0,1-1-2.65,3.23,3.23,0,0,1,1.06-2.61,4.26,4.26,0,0,1,5.21,0,3.24,3.24,0,0,1,1,2.61Zm9.07,8.17a7.61,7.61,0,0,1,5.76-2.64,6.8,6.8,0,0,1,5.38,2.09,7.75,7.75,0,0,1,1.84,5.33V55.9H146V45.55a2.55,2.55,0,0,0-2.75-2.82,3.8,3.8,0,0,0-3.09,1.58V55.9h-6.39V37.84h5.64Z"/><path class="cls-2" d="M178.91,29.56h6.58V55.9h-7v-14l-5.64,8.65h-4l-5.64-8.69v14h-7V29.56h6.59l8,12.34,8-12.34Zm9.67,17.31a10.48,10.48,0,0,1,.9-4.46,7.55,7.55,0,0,1,2.37-3,10.9,10.9,0,0,1,3.05-1.6,9.93,9.93,0,0,1,3.16-.53,11.18,11.18,0,0,1,4,.68,7.16,7.16,0,0,1,2.81,1.81,9,9,0,0,1,1.67,2.61,7.41,7.41,0,0,1,.62,3.12,19.51,19.51,0,0,1-.32,3.3H195.05c.68,1.85,2.59,2.78,5.75,2.78a14.58,14.58,0,0,0,5.2-.87v4.75a20.22,20.22,0,0,1-6.7,1,11.57,11.57,0,0,1-7.68-2.54,8.67,8.67,0,0,1-3-7.05ZM201,45a2.7,2.7,0,0,0-.47-2,2.54,2.54,0,0,0-2.35-1.07,3.39,3.39,0,0,0-2.3.83A2.83,2.83,0,0,0,195,45Zm20.85-7.11h6.77L221.5,55.9h-6.77l-7.15-18.06h6.77l3.76,11.4,3.77-11.4Zm25.24,12.9c0,.75.42,1.13,1.24,1.13a2.46,2.46,0,0,0,.72-.11v4a8.67,8.67,0,0,1-3.24.56,4.72,4.72,0,0,1-4.29-2,9.93,9.93,0,0,1-6.28,2.18,6.79,6.79,0,0,1-4.48-1.5,5,5,0,0,1-1.8-4.07,5.5,5.5,0,0,1,.71-2.84,4.92,4.92,0,0,1,1.9-1.86,9.82,9.82,0,0,1,2.48-.94,12.15,12.15,0,0,1,2.73-.3,18.61,18.61,0,0,1,3.92.41v-.64a1.87,1.87,0,0,0-1-1.63,5.15,5.15,0,0,0-2.81-.63,17.12,17.12,0,0,0-6.32,1.4V38.48a22.51,22.51,0,0,1,7-1.21c3.08,0,5.43.64,7,1.92s2.41,3.45,2.41,6.51v5Zm-11.55-.37a1.59,1.59,0,0,0,.6,1.26,2.36,2.36,0,0,0,1.58.5,4.9,4.9,0,0,0,3-.94V48.75a7.17,7.17,0,0,0-2.3-.34C236.52,48.41,235.57,49.06,235.57,50.37Z"/><path class="cls-4" d="M2.79,74.89h.87V69h0l2,5.88h.93l2-5.88h0v5.88h.88v-7H8.1l-2,5.88h0l-2-5.88H2.79v7ZM14.3,73.26a1.34,1.34,0,0,1-1.38,1c-.89,0-1.42-.65-1.43-1.64h3.72v-.44a2.26,2.26,0,0,0-2.36-2.57,2.44,2.44,0,0,0-2.3,2.67c0,1.85,1,2.74,2.38,2.74a2.19,2.19,0,0,0,2.22-1.79ZM11.49,72a1.5,1.5,0,0,1,1.43-1.55A1.39,1.39,0,0,1,14.33,72Zm6.32,2h0L16.46,69.8h-1l1.86,5.09h.91l1.94-5.09h-.93L17.81,74Zm3.51-2.62c.05-.65.42-1,1.19-1s1.17.26,1.17.87c0,.4-.17.57-.44.59L21.81,72a1.56,1.56,0,0,0-1.53,1.6,1.47,1.47,0,0,0,1.56,1.47,2.27,2.27,0,0,0,1.86-.83c.05.54.33.74.93.74a1.65,1.65,0,0,0,.47-.08v-.6a1.55,1.55,0,0,1-.29,0,.28.28,0,0,1-.28-.31v-3c0-1-1-1.41-1.93-1.41-1.2,0-2.06.44-2.1,1.69Zm2.34,1.79c0,.87-1.06,1.22-1.58,1.22a.84.84,0,0,1-.93-.89c0-.51.46-.74,1.09-.83a3.68,3.68,0,0,0,1.42-.32v.82Zm2.05-.51h2.38v-.87H25.71v.87Zm3.15.67c0,1.24.89,1.77,2.15,1.77s2-.8,2-1.73c0-1.8-3.2-1-3.2-2.22,0-.45.37-.76,1-.76s1.15.33,1.2.9h.81c0-.91-.71-1.6-2-1.6-1.07,0-1.9.57-1.9,1.63,0,1.79,3.2,1.11,3.2,2.24,0,.47-.42.83-1.21.83s-1.3-.31-1.34-1.06Zm6-2c0-.65.42-1,1.19-1s1.17.26,1.17.87c0,.4-.17.57-.44.59L35.33,72a1.56,1.56,0,0,0-1.53,1.6,1.47,1.47,0,0,0,1.56,1.47,2.27,2.27,0,0,0,1.86-.83c.05.54.33.74.93.74a1.65,1.65,0,0,0,.47-.08v-.6a1.55,1.55,0,0,1-.29,0,.28.28,0,0,1-.28-.31v-3c0-1-.95-1.41-1.94-1.41-1.19,0-2,.44-2.09,1.69Zm2.34,1.79c0,.87-1.07,1.22-1.58,1.22a.84.84,0,0,1-.93-.89c0-.51.46-.74,1.09-.83a3.68,3.68,0,0,0,1.42-.32v.82Zm2.17,1.77h.81V74.2h0a1.54,1.54,0,0,0,1.45.85c1.74,0,2.24-1.64,2.24-2.87,0-1.42-.77-2.54-2.12-2.54a1.78,1.78,0,0,0-1.53.87V67.9h-.87v7ZM41.6,70.4c1.33,0,1.4,1.26,1.4,1.91,0,1.12-.44,2-1.38,2-.55,0-1.4-.37-1.4-1.73,0-.82.14-2.16,1.38-2.16Zm7.09.1v-.7H44.75v.7H47.6l-3.09,3.72v.67h4.27v-.7H45.63l3.06-3.69Zm1.84.83c0-.65.42-1,1.19-1s1.17.26,1.17.87c0,.4-.17.57-.44.59L51,72a1.56,1.56,0,0,0-1.53,1.6,1.47,1.47,0,0,0,1.56,1.47,2.27,2.27,0,0,0,1.86-.83c.05.54.33.74.93.74a1.65,1.65,0,0,0,.47-.08v-.6a1.55,1.55,0,0,1-.29,0,.28.28,0,0,1-.28-.31v-3c0-1-1-1.41-1.94-1.41-1.19,0-2,.44-2.09,1.69Zm2.34,1.79c0,.87-1.07,1.22-1.58,1.22a.84.84,0,0,1-.93-.89c0-.51.46-.74,1.09-.83a3.68,3.68,0,0,0,1.42-.32v.82Zm3.84.83h0L55.37,69.8h-1l1.86,5.09h.92l1.94-5.09h-.94L56.71,74Zm6.45-1.61c0,1.14-.51,2-1.49,2s-1.49-.81-1.49-2,.52-1.94,1.49-1.94,1.49.81,1.49,1.94Zm.88,0c0-1.65-.89-2.7-2.37-2.7s-2.36,1-2.36,2.7.88,2.71,2.36,2.71S64,74,64,72.34Zm2.84-1.84v-.7h-.81V68.38H65.2V69.8h-.68v.7h.68v3.37c0,.61.18,1.09,1,1.09a5.07,5.07,0,0,0,.64-.07V74.2h-.3c-.18,0-.51,0-.51-.4V70.5Zm4,2.6a1.29,1.29,0,0,1-1.23,1.24c-.86,0-1.38-.58-1.38-1.92s.47-2,1.43-2a1.12,1.12,0,0,1,1.18,1.11h.82a1.9,1.9,0,0,0-2.09-1.87c-1.18,0-2.21,1-2.21,2.73,0,2,1.21,2.68,2.12,2.68a2,2,0,0,0,2.18-2Zm1.66,1.79h.87V72.1c0-1.29.72-1.7,1.42-1.7s1,.45,1,1.14v3.35h.87V71.42A1.61,1.61,0,0,0,75,69.64a1.8,1.8,0,0,0-1.51.83h0V67.9h-.87v7ZM78,69h.87V68H78v1Zm0,5.94h.87V69.8H78v5.09Zm3-7h-.87v7H81v-7Zm1.29,1h.87V68h-.87v1Zm0,5.94h.87V69.8h-.87v5.09Zm4.33-3.19,2-1.9H87.52L85.36,72v-4h-.88v7h.88V73l.68-.64,1.58,2.57h1.1L86.66,71.7ZM92,74.89h.88V72.1c0-1.39.86-1.7,1.33-1.7.64,0,.8.52.8.95v3.54h.88V71.77a1.29,1.29,0,0,1,1.19-1.37c.72,0,.94.48.94,1.18v3.31h.87V71.36a1.54,1.54,0,0,0-1.57-1.72,1.87,1.87,0,0,0-1.58.83,1.39,1.39,0,0,0-1.35-.83,1.78,1.78,0,0,0-1.54.87h0V69.8H92v5.09Zm9-3.56c0-.65.42-1,1.19-1s1.16.26,1.16.87c0,.4-.16.57-.43.59l-1.44.18a1.56,1.56,0,0,0-1.52,1.6,1.47,1.47,0,0,0,1.55,1.47,2.29,2.29,0,0,0,1.87-.83c0,.54.32.74.93.74a1.52,1.52,0,0,0,.46-.08v-.6a1.35,1.35,0,0,1-.28,0,.28.28,0,0,1-.28-.31v-3c0-1-1-1.41-1.94-1.41-1.19,0-2,.44-2.09,1.69Zm2.33,1.79c0,.87-1.06,1.22-1.57,1.22a.84.84,0,0,1-.93-.89c0-.51.46-.74,1.09-.83a3.58,3.58,0,0,0,1.41-.32v.82Zm2.37,1.77h.87v-3a1.3,1.3,0,0,1,1.3-1.37h.32v-.88a.69.69,0,0,0-.22,0,1.64,1.64,0,0,0-1.43,1h0V69.8h-.82v5.09ZM111,71.7l2-1.9h-1.09L109.69,72v-4h-.88v7h.88V73l.68-.64L112,74.89h1.1L111,71.7Zm6,1.56a1.36,1.36,0,0,1-1.38,1c-.89,0-1.42-.65-1.43-1.64h3.71v-.44a2.25,2.25,0,0,0-2.35-2.57,2.44,2.44,0,0,0-2.3,2.67c0,1.85,1,2.74,2.38,2.74a2.2,2.2,0,0,0,2.22-1.79ZM114.17,72a1.49,1.49,0,0,1,1.43-1.55A1.39,1.39,0,0,1,117,72Zm6.6-1.45v-.7H120V68.38h-.88V69.8h-.68v.7h.68v3.37c0,.61.19,1.09,1,1.09a5.19,5.19,0,0,0,.65-.07V74.2h-.31c-.17,0-.5,0-.5-.4V70.5Zm.84-1.55h.88V68h-.88v1Zm0,5.94h.88V69.8h-.88v5.09Zm2.13,0h.88V72.1c0-1.39.86-1.7,1.34-1.7.84,0,1.09.45,1.09,1.34v3.15h.88V71.42a1.61,1.61,0,0,0-1.78-1.78,1.87,1.87,0,0,0-1.56.87h0V69.8h-.83v5.09Zm7.41-4.49c1.24,0,1.37,1.35,1.37,2.16,0,1.37-.84,1.73-1.39,1.73-.93,0-1.37-.86-1.37-2,0-.64.07-1.91,1.39-1.91Zm2.21-.6h-.81v.71h0a1.72,1.72,0,0,0-1.53-.87c-1.35,0-2.12,1.11-2.12,2.55,0,1.22.51,2.86,2.24,2.86a1.53,1.53,0,0,0,1.36-.69v.17c0,.84,0,1.8-1.43,1.8a1,1,0,0,1-1.14-.83h-.86A1.74,1.74,0,0,0,131,77c2.35,0,2.36-1.84,2.36-2.57V69.8ZM134.6,69h.87V68h-.87v1Zm0,5.94h.87V69.8h-.87v5.09Zm5.74-7h-.88v7h.88v-7Zm4.84,4.44c0,1.14-.52,2-1.49,2s-1.49-.81-1.49-2,.51-1.94,1.49-1.94,1.49.81,1.49,1.94Zm.87,0c0-1.65-.88-2.7-2.36-2.7s-2.37,1-2.37,2.7.89,2.71,2.37,2.71,2.36-1,2.36-2.71ZM148.19,75l-.28.72a.62.62,0,0,1-.62.44,1.72,1.72,0,0,1-.52-.08v.78a1.67,1.67,0,0,0,.49.06c.92,0,1.16-.25,1.75-1.86l2-5.29h-1L148.64,74h0l-1.35-4.15h-1L148.19,75ZM151.71,69h.87V68h-.87v1Zm0,5.94h.87V69.8h-.87v5.09Zm2.13,0h.88V72.1c0-1.29.72-1.7,1.42-1.7s1,.45,1,1.14v3.35H158V71.42a1.61,1.61,0,0,0-1.78-1.78,1.84,1.84,0,0,0-1.51.83h0V67.9h-.88v7Zm6.25-3.56c0-.65.42-1,1.19-1s1.16.26,1.16.87c0,.4-.16.57-.43.59l-1.44.18a1.56,1.56,0,0,0-1.52,1.6,1.47,1.47,0,0,0,1.55,1.47,2.29,2.29,0,0,0,1.87-.83c.05.54.32.74.93.74a1.52,1.52,0,0,0,.46-.08v-.6a1.35,1.35,0,0,1-.28,0,.28.28,0,0,1-.28-.31v-3c0-1-1-1.41-1.94-1.41-1.19,0-2.05.44-2.09,1.69Zm2.33,1.79c0,.87-1.06,1.22-1.57,1.22a.84.84,0,0,1-.93-.89c0-.51.46-.74,1.09-.83a3.58,3.58,0,0,0,1.41-.32v.82Zm2,.16c0,1.24.89,1.77,2.15,1.77s2-.8,2-1.73c0-1.8-3.21-1-3.21-2.22,0-.45.37-.76,1-.76s1.14.33,1.19.9h.82c0-.91-.71-1.6-2-1.6-1.07,0-1.89.57-1.89,1.63,0,1.79,3.2,1.11,3.2,2.24,0,.47-.42.83-1.21.83s-1.3-.31-1.34-1.06ZM169.56,69h.87V68h-.87v1Zm0,5.94h.87V69.8h-.87v5.09Zm2.13,0h.88V72.1c0-1.39.85-1.7,1.34-1.7.84,0,1.09.45,1.09,1.34v3.15h.88V71.42a1.62,1.62,0,0,0-1.79-1.78,1.85,1.85,0,0,0-1.55.87h0V69.8h-.83v5.09ZM177.13,69H178V68h-.88v1Zm0,5.94H178V69.8h-.88v5.09Zm2.13,0h.88V72.1c0-1.39.86-1.7,1.34-1.7.84,0,1.09.45,1.09,1.34v3.15h.88V71.42a1.61,1.61,0,0,0-1.78-1.78,1.85,1.85,0,0,0-1.56.87h0V69.8h-.83v5.09Zm7.41-4.49c1.24,0,1.37,1.35,1.37,2.16,0,1.37-.84,1.73-1.39,1.73-.93,0-1.37-.86-1.37-2,0-.64.07-1.91,1.39-1.91Zm2.21-.6h-.81v.71h0a1.72,1.72,0,0,0-1.53-.87c-1.35,0-2.12,1.11-2.12,2.55,0,1.22.51,2.86,2.24,2.86a1.53,1.53,0,0,0,1.36-.69v.17c0,.84,0,1.8-1.43,1.8a1.05,1.05,0,0,1-1.15-.83h-.85A1.74,1.74,0,0,0,186.51,77c2.36,0,2.37-1.84,2.37-2.57V69.8Zm4,5.09h.87v-3a1.3,1.3,0,0,1,1.3-1.37h.32v-.88a.69.69,0,0,0-.22,0,1.64,1.64,0,0,0-1.43,1h0V69.8h-.82v5.09Zm3.61-3.56c.05-.65.42-1,1.19-1s1.17.26,1.17.87c0,.4-.17.57-.44.59L197,72a1.56,1.56,0,0,0-1.53,1.6,1.47,1.47,0,0,0,1.56,1.47,2.27,2.27,0,0,0,1.86-.83c.05.54.33.74.93.74a1.65,1.65,0,0,0,.47-.08v-.6a1.55,1.55,0,0,1-.29,0,.28.28,0,0,1-.28-.31v-3c0-1-1-1.41-1.94-1.41-1.19,0-2.05.44-2.09,1.69Zm2.34,1.79c0,.87-1.07,1.22-1.58,1.22a.84.84,0,0,1-.93-.89c0-.51.46-.74,1.09-.83a3.68,3.68,0,0,0,1.42-.32v.82Zm2,.16c0,1.24.89,1.77,2.15,1.77s2-.8,2-1.73c0-1.8-3.21-1-3.21-2.22,0-.45.37-.76,1-.76s1.14.33,1.19.9h.82c0-.91-.71-1.6-2-1.6-1.07,0-1.89.57-1.89,1.63,0,1.79,3.2,1.11,3.2,2.24,0,.47-.42.83-1.21.83s-1.3-.31-1.34-1.06ZM206,74.89h.88V72.1c0-1.39.85-1.7,1.33-1.7s.8.52.8.95v3.54h.87V71.77a1.3,1.3,0,0,1,1.2-1.37c.72,0,.94.48.94,1.18v3.31h.87V71.36a1.54,1.54,0,0,0-1.57-1.72,1.87,1.87,0,0,0-1.58.83,1.39,1.39,0,0,0-1.35-.83,1.78,1.78,0,0,0-1.54.87h0V69.8H206v5.09ZM214.11,69H215V68h-.87v1Zm0,5.94H215V69.8h-.87v5.09Zm3.51.14-.28.72a.62.62,0,0,1-.62.44,1.72,1.72,0,0,1-.52-.08v.78a1.62,1.62,0,0,0,.49.06c.92,0,1.16-.25,1.75-1.86l1.95-5.29h-1L218.07,74h0L216.7,69.8h-1L217.62,75Zm6.12-.14h.82V74.2h0a1.54,1.54,0,0,0,1.45.85c1.73,0,2.24-1.64,2.24-2.87,0-1.42-.77-2.54-2.12-2.54a1.75,1.75,0,0,0-1.53.87V67.9h-.88v7ZM226,70.4c1.33,0,1.39,1.26,1.39,1.91,0,1.12-.43,2-1.37,2-.55,0-1.4-.37-1.4-1.73,0-.82.14-2.16,1.38-2.16Zm3.35,4.49h.88v-3a1.29,1.29,0,0,1,1.29-1.37h.32v-.88a.65.65,0,0,0-.22,0,1.65,1.65,0,0,0-1.43,1h0V69.8h-.82v5.09Zm6.43-1.63a1.34,1.34,0,0,1-1.38,1c-.88,0-1.42-.65-1.43-1.64h3.72v-.44a2.25,2.25,0,0,0-2.36-2.57A2.44,2.44,0,0,0,232,72.31c0,1.85,1,2.74,2.37,2.74a2.19,2.19,0,0,0,2.22-1.79ZM233,72a1.5,1.5,0,0,1,1.43-1.55A1.39,1.39,0,0,1,235.81,72Zm4.71,2.94h.88V72.1c0-1.39.85-1.7,1.34-1.7.84,0,1.09.45,1.09,1.34v3.15h.88V71.42a1.61,1.61,0,0,0-1.78-1.78,1.85,1.85,0,0,0-1.56.87h0V69.8h-.83v5.09Zm9.67-7h-.88v2.61a1.75,1.75,0,0,0-1.53-.87c-1.35,0-2.12,1.12-2.12,2.54,0,1.23.51,2.87,2.24,2.87a1.54,1.54,0,0,0,1.45-.85h0v.69h.82v-7Zm-2.26,2.5c1.24,0,1.38,1.34,1.38,2.16,0,1.36-.85,1.73-1.4,1.73-.93,0-1.37-.86-1.37-2,0-.65.07-1.91,1.39-1.91ZM248.53,69h.88V68h-.88v1Zm0,5.94h.88V69.8h-.88Z"/><polygon class="cls-4" points="1.14 65.96 0.18 65.65 0 66.12 0.98 66.43 0.38 67.31 0.82 67.6 1.42 66.75 2.02 67.6 2.46 67.31 1.86 66.43 2.84 66.12 2.66 65.65 1.7 65.96 1.7 64.94 1.14 64.94 1.14 65.96"/></g></g></svg>