<svg width="178" height="182" viewBox="0 0 178 182" fill="none" xmlns="http://www.w3.org/2000/svg">
<path d="M144.141 115.721C134.257 129.558 131.292 138.453 131.292 146.36C131.292 152.686 131.292 168.763 131.292 176.011" stroke="black" stroke-width="9" stroke-linecap="round"/>
<path d="M60.1292 177V157.232C57.1641 157.232 49.4548 157.232 42.3385 157.232C33.4431 157.232 28.5013 153.279 26.5246 144.384C24.9432 137.267 23.5592 114.732 22.5709 112.756C21.5825 110.779 9.9199 106.035 6.75711 102.872C2.80362 98.9185 6.75711 93.9766 6.75711 93.9766L22.5711 68.279C22.5711 68.279 25.5362 10.9534 72.9781 7.98828" stroke="black" stroke-width="9" stroke-linecap="round"/>
<circle cx="119.432" cy="58.3951" r="17.2442" stroke="black" stroke-width="9"/>
<path d="M152.95 15.4246C151.399 13.8753 148.958 13.6685 147.169 14.935L139.043 20.6873C136.711 19.3386 134.235 18.2072 131.645 17.3213L130.172 8.27688C129.818 6.09938 127.937 4.5 125.731 4.5H112.269C110.074 4.5 108.199 6.08418 107.832 8.24876L106.401 16.7018C103.78 17.4557 101.265 18.4575 98.8818 19.6797L90.5218 14.7347C88.7541 13.6891 86.5028 13.973 85.05 15.4246L76.3962 24.0717C74.7257 25.7408 74.6297 28.4173 76.1762 30.2019L81.4946 36.3392C79.7277 39.4482 78.3457 42.8061 77.4146 46.3475L68.2965 47.7906C66.11 48.1367 64.5 50.0216 64.5 52.2353V63.7647C64.5 65.9868 66.122 67.8763 68.3185 68.2128L77.9824 69.6934C78.9087 72.6242 80.1478 75.4152 81.6597 78.0272L75.906 86.1424C74.6367 87.9326 74.8438 90.3772 76.3962 91.9283L85.05 100.575C86.572 102.096 88.9577 102.327 90.7428 101.126L99.953 94.929C102.292 96.0457 104.751 96.9528 107.306 97.6258L108.779 107.654C109.103 109.863 110.998 111.5 113.231 111.5H125.731C127.975 111.5 129.876 109.847 130.187 107.624L131.712 96.734C133.8 96.016 135.813 95.1384 137.736 94.1161L147.1 101.015C148.891 102.334 151.377 102.148 152.95 100.575L161.604 91.9283C163.112 90.4212 163.356 88.0623 162.187 86.2787L155.489 76.0563C156.39 74.2874 157.169 72.4458 157.816 70.5424L169.866 68.1807C171.977 67.7668 173.5 65.9163 173.5 63.7647V52.2353C173.5 50.0939 171.991 48.2491 169.892 47.8246L158.432 45.5067C157.786 43.2432 156.955 41.058 155.956 38.9686L162.155 29.7696C163.359 27.9833 163.128 25.5943 161.604 24.0717L152.95 15.4246Z" stroke="black" stroke-width="9" stroke-linejoin="round"/>
</svg>
