<?xml version="1.0" encoding="utf-8"?>
<!-- Generator: Adobe Illustrator 24.3.0, SVG Export Plug-In . SVG Version: 6.00 Build 0)  -->
<svg version="1.1" id="Слой_1" xmlns="http://www.w3.org/2000/svg" xmlns:xlink="http://www.w3.org/1999/xlink" x="0px" y="0px"
	 viewBox="0 0 85 85" style="enable-background:new 0 0 85 85;" xml:space="preserve">
<style type="text/css">
	.st0{fill:#010202;}
</style>
<g id="Group_223" transform="translate(0 -24.45)">
	<g id="Group_222" transform="translate(0 24.45)">
		<path id="Path_256" class="st0" d="M64,31C64,31,64,31,64,31C64,31,64,30.9,64,31C64,30.9,64,30.9,64,31c0-0.1,0-0.1,0-0.1l0,0
			c0,0,0,0,0-0.1v0l-1.8-4.5c-0.2-0.5-0.6-0.7-1.1-0.7h-3.2c-0.3,0-0.6,0.3-0.6,0.6s0.3,0.6,0.6,0.6h3.1l1.4,3.6H49.3l-0.8-3.6h4.9
			c0.3,0,0.6-0.3,0.6-0.6s-0.3-0.6-0.6-0.6H27.8c-0.5,0-0.9,0.3-1.1,0.7l-1.8,4.5v0c0,0,0,0,0,0.1l0,0c0,0,0,0,0,0.1s0,0,0,0
			s0,0,0,0.1s0,0,0,0v9.3c0,0.3,0.3,0.6,0.6,0.6s0.6-0.3,0.6-0.6v-8.6h13.4v9.6c0,0.5,0.4,1,1,1c0.2,0,0.5-0.1,0.6-0.2l3.3-3l3.3,3
			c0.4,0.4,1,0.3,1.3-0.1c0.2-0.2,0.2-0.4,0.2-0.6v-9.6h13.4V60c0,0.5-0.4,0.8-0.8,0.8H50.4c0,0,0,0,0,0c0-0.1,0-0.1,0-0.2
			c1.2,0.3,2.5-0.4,2.8-1.6c0.1-0.5,0.1-1-0.1-1.5c0-0.1,0-0.1-0.1-0.2l0,0c0,0-0.1-0.1-0.1-0.1l0,0c0,0-0.1-0.1-0.1-0.1l0,0
			c0,0-0.1-0.1-0.1-0.1l0,0c0,0-0.1-0.1-0.1-0.1l0,0c0,0-0.1-0.1-0.1-0.1l0,0c0,0-0.1-0.1-0.1-0.1l0,0c0,0-0.1-0.1-0.1-0.1l0,0
			c0.9-0.8,1-2.3,0.2-3.2c-0.2-0.2-0.4-0.4-0.7-0.5c-0.1,0-0.1-0.1-0.2-0.1l-9.8-4l4.6-1.4c1.1-0.3,1.7-1.5,1.3-2.6
			c-0.1-0.4-0.4-0.7-0.7-1c-0.5-0.4-1.1-0.5-1.7-0.4h0c0,0-3.5,0.8-7.2,1.5l-0.5,0.1l-0.4,0.1l-0.1,0L36.3,45l-0.2,0
			c-4.6,0.8-5.9,0.9-6.3,0.8l0,0h0h0h0c0,0,0,0-0.1,0l-0.1,0l0.1-0.3c0.1-0.3,0.1-0.7,0-1c0-0.1-0.1-0.1-0.1-0.2
			c-0.1-0.2-0.3-0.4-0.6-0.5l-3.4-1.4c-0.6-0.3-1.4,0-1.6,0.7l-4.1,10.2c-0.3,0.6,0,1.4,0.7,1.6l3.4,1.4c0.6,0.3,1.4,0,1.6-0.7
			l0-0.1l0.8,0.3l0,0c0.7,0.3,1.4,0.7,2,1.3c0.1,0.1,0.2,0.2,0.3,0.3c0.1,0.1,0.2,0.2,0.3,0.3c0,0.1,0.1,0.1,0.1,0.2
			c0.9,1.1,2,1.9,3.3,2.5l0.9,0.4H27c-0.5,0-0.8-0.4-0.8-0.8v-1.6c0-0.3-0.3-0.6-0.6-0.6s-0.6,0.3-0.6,0.6v1.6
			c0,1.2,0.9,2.1,2.1,2.1h9.5l8.1,3.3c1.2,0.5,2.5-0.1,3-1.2c0.1-0.3,0.2-0.7,0.2-1.1c0.4,0.1,0.9,0,1.3-0.2c0.4-0.2,0.7-0.4,1-0.8
			h12c1.2,0,2.1-0.9,2.1-2.1L64,31L64,31z M41.8,26.8h5.4l0.8,3.6h-7L41.8,26.8z M39.6,30.4H26.4l1.4-3.6h12.6L39.6,30.4z
			 M48.1,40.5L48.1,40.5l-3-2.7c-0.4-0.3-0.9-0.3-1.3,0l-3,2.7v-8.9h7.3V40.5z M24.5,55.2l-3.4-1.4l4.1-10.2l3.4,1.4L24.5,55.2z
			 M49.7,59L49,58.7l0,0l-7.5-3.1c-0.3-0.1-0.7,0-0.8,0.3c-0.1,0.3,0,0.7,0.3,0.8l0,0l7.5,3.1c0,0,0.1,0,0.1,0l0,0c0,0,0,0,0.1,0
			l0,0c0,0,0,0,0.1,0l0,0c0,0,0,0,0,0l0,0c0,0,0,0,0,0s0,0,0,0s0,0,0,0c0,0,0,0,0,0s0,0,0,0c0,0,0,0,0,0s0,0,0,0s0,0,0,0s0,0,0,0
			s0,0,0,0c0,0,0,0,0,0c0,0,0,0,0,0c0,0,0,0,0,0s0,0,0,0s0,0,0,0s0,0,0,0s0,0,0,0s0,0,0,0c0,0,0,0,0,0s0,0,0,0c0,0,0,0,0,0.1
			c0,0,0,0,0,0c0,0,0,0,0,0.1l0,0v0c-0.1,0.2-0.3,0.4-0.5,0.5c-0.3,0.1-0.6,0.1-0.8,0l-1.3-0.5l0,0l0,0l-6.1-2.5
			c-0.3-0.1-0.7,0-0.8,0.3c-0.1,0.3,0,0.7,0.3,0.8l0,0l6.1,2.5l0,0l0,0c0.5,0.2,0.8,0.8,0.6,1.3c-0.2,0.5-0.8,0.8-1.3,0.6l0,0
			l-8.2-3.4l0,0L33,59.2c-1.1-0.4-2-1.2-2.8-2.1c-0.9-1.1-2-1.9-3.3-2.5l0,0l-0.8-0.3l1.6-3.8l1.5-3.6l0.1,0
			c0.2,0.1,0.4,0.1,0.6,0.1c0.9,0,1.8-0.1,2.8-0.2c1-0.1,2.2-0.3,3.6-0.6l0.1,0l0.2,0l0.2,0l0.2,0l0.2,0l0.2,0l0.2,0l0.1,0l0.4-0.1
			c3.6-0.7,7.2-1.5,7.3-1.5l0,0c0.4-0.1,0.8,0.2,0.9,0.6c0.1,0.4-0.1,0.9-0.5,1l-6.3,1.9c-0.3,0.1-0.5,0.5-0.4,0.8
			c0.1,0.2,0.2,0.3,0.4,0.4l11.5,4.7c0.5,0.2,0.8,0.8,0.6,1.3c-0.2,0.4-0.5,0.6-0.9,0.6h0c0,0-0.1,0-0.1,0h0c0,0,0,0-0.1,0l0,0
			l-0.1,0l-0.1,0l0,0l-7.5-3.1c-0.3-0.1-0.7,0-0.8,0.3c-0.1,0.3,0,0.7,0.3,0.8l9.2,3.7c0.1,0,0.1,0.1,0.2,0.1
			c0.4,0.2,0.5,0.7,0.4,1.1c0,0,0,0.1,0,0.1c0,0,0,0.1,0,0.1c-0.1,0.1-0.1,0.2-0.2,0.3l0,0c-0.3,0.2-0.7,0.3-1,0.2L49.7,59z"/>
	</g>
</g>
</svg>
