<?xml version="1.0" encoding="utf-8"?>
<!-- Generator: Adobe Illustrator 24.3.0, SVG Export Plug-In . SVG Version: 6.00 Build 0)  -->
<svg version="1.1" id="Слой_1" xmlns="http://www.w3.org/2000/svg" xmlns:xlink="http://www.w3.org/1999/xlink" x="0px" y="0px"
	 viewBox="0 0 85 85" style="enable-background:new 0 0 85 85;" xml:space="preserve">
<style type="text/css">
	.st0{fill:#2B374D;}
</style>
<g id="Group_236" transform="translate(0 -46)">
	<path id="Path_257" class="st0" d="M44.7,84.6c-0.5,0-1,0.4-1,1s0.4,1,1,1c0.5,0,1-0.4,1-1C45.7,85,45.2,84.6,44.7,84.6z"/>
	<path id="Path_258" class="st0" d="M64.8,102.2c0-10.8-8.5-19.7-18.8-21.2c1.2-1.8,0.7-4.2-1-5.4c-1.8-1.2-4.2-0.7-5.4,1
		c-0.9,1.3-0.9,3,0,4.4c-10.3,1.5-18.8,10.4-18.8,21.2c-1.6,0-3,1.3-3,2.9c0,1.6,1.3,3,2.9,3c0,0,0.1,0,0.1,0h44.1
		c1.6,0,3-1.3,3-2.9c0-1.6-1.3-3-2.9-3C64.9,102.2,64.9,102.2,64.8,102.2z M40.8,78.7c0-1.1,0.9-2,2-2s2,0.9,2,2c0,1.1-0.9,2-2,2
		c0,0,0,0,0,0C41.7,80.7,40.8,79.8,40.8,78.7z M42.8,82.6c10.8,0,20.1,8.7,20.1,19.5H22.6C22.6,91.6,31.9,82.6,42.8,82.6L42.8,82.6z
		 M64.8,106.1H20.7c-0.5,0-1-0.4-1-1c0-0.5,0.4-1,1-1c0,0,0,0,0,0h44.1c0.5,0,1,0.4,1,1C65.8,105.6,65.4,106.1,64.8,106.1
		C64.8,106.1,64.8,106.1,64.8,106.1z"/>
	<path id="Path_259" class="st0" d="M59.4,94.9c-2.2-4.3-6-7.7-10.5-9.3c-0.5-0.2-1.1,0.1-1.3,0.6c-0.2,0.5,0.1,1.1,0.6,1.3l0,0
		c4.1,1.4,7.5,4.4,9.4,8.2c0.2,0.5,0.8,0.7,1.3,0.5S59.6,95.4,59.4,94.9L59.4,94.9L59.4,94.9z"/>
	<path id="Path_260" class="st0" d="M67.2,78.6l-2.3-1.2l-1.2-2.3c-0.2-0.5-0.8-0.7-1.3-0.4c-0.2,0.1-0.3,0.2-0.4,0.4l-1.2,2.3
		l-2.3,1.2c-0.5,0.2-0.7,0.8-0.4,1.3c0.1,0.2,0.2,0.3,0.4,0.4l2.3,1.2l1.2,2.3c0.2,0.5,0.8,0.7,1.3,0.4c0.2-0.1,0.3-0.2,0.4-0.4
		l1.2-2.3l2.3-1.2c0.5-0.2,0.7-0.8,0.4-1.3C67.5,78.9,67.4,78.7,67.2,78.6z M63.7,79.9c-0.2,0.1-0.3,0.2-0.4,0.4l-0.4,0.9l-0.4-0.9
		c-0.1-0.2-0.2-0.3-0.4-0.4l-0.9-0.4l0.9-0.4c0.2-0.1,0.3-0.2,0.4-0.4l0.4-0.9l0.4,0.9c0.1,0.2,0.2,0.3,0.4,0.4l0.9,0.4L63.7,79.9z"
		/>
	<path id="Path_261" class="st0" d="M22.4,76.1l1.3,3.9c0.2,0.5,0.7,0.8,1.2,0.6c0.3-0.1,0.5-0.3,0.6-0.6l1.3-3.9l3.9-1.3
		c0.5-0.2,0.8-0.7,0.6-1.2c-0.1-0.3-0.3-0.5-0.6-0.6l-3.9-1.3l-1.3-3.9c-0.2-0.5-0.7-0.8-1.2-0.6c-0.3,0.1-0.5,0.3-0.6,0.6l-1.3,3.9
		l-3.9,1.3c-0.5,0.2-0.8,0.7-0.6,1.2c0.1,0.3,0.3,0.5,0.6,0.6L22.4,76.1z M23.4,73.3c0.3-0.1,0.5-0.3,0.6-0.6l0.5-1.6l0.5,1.6
		c0.1,0.3,0.3,0.5,0.6,0.6l1.6,0.5l-1.6,0.5c-0.3,0.1-0.5,0.3-0.6,0.6l-0.5,1.6L24.1,75c-0.1-0.3-0.3-0.5-0.6-0.6l-1.6-0.5
		L23.4,73.3z"/>
</g>
</svg>
