<svg version="1.1" id="Слой_1" xmlns="http://www.w3.org/2000/svg" xmlns:xlink="http://www.w3.org/1999/xlink" x="0px"
    y="0px" viewBox="0 0 53.93 42.67" style="enable-background:new 0 0 53.93 42.67;" xml:space="preserve">
    <style type="text/css">
        .st0 {
            fill-rule: evenodd;
            clip-rule: evenodd;
            fill: url(#SVGID_1_);
        }
    </style>
    <linearGradient id="SVGID_1_" gradientUnits="userSpaceOnUse" x1="27.3876" y1="4.9732" x2="27.3876" y2="36.1723">
        <stop offset="0" style="stop-color:#554A3D" />
        <stop offset="0.5091" style="stop-color:#EFE2C3" />
        <stop offset="1" style="stop-color:#C8B699" />
    </linearGradient>
    <path class="st0" d="M42.94,8.51c0.27,0,0.49,0.05,0.59,0.21c0.15,0.23,0.05,0.9,0.05,1.24c0,1.04,0,2.08,0,3.12
	c0.01,0,0.02,0,0.03,0c0.15-0.23,0.43-0.35,0.65-0.51c0.1-0.1,0.2-0.2,0.3-0.3c0.06-0.04,0.27-0.06,0.35-0.02
	c0.24,0.24,0.48,0.48,0.72,0.72c-0.01-0.64,0.49-0.49,1.07-0.49c0.27,0,0.61-0.05,0.73,0.12c0.17,0.25,0.07,0.96,0.07,1.35
	c0,1.13,0,2.27,0,3.4c0.3-0.03,1.18-0.09,1.31,0.11c0.11,0.17,0.05,0.54,0.05,0.79c0,0.64,0,1.29,0,1.93c-0.1,0-0.2,0-0.3,0
	c0-0.85,0-1.7,0-2.54c-0.01,0-0.01,0-0.02,0c-0.17-0.11-0.75-0.03-1-0.03c0,0-0.01,0.01-0.01,0.01c-0.07,0.42-0.02,0.96-0.02,1.43
	c0,0.19,0,0.37,0,0.56c-0.11,0.22-0.07,0.52-0.07,0.84c-0.08,0-0.16,0.01-0.23,0.01c0-2.55,0-5.11,0-7.66
	c-0.42-0.01-0.84-0.01-1.26-0.02c0,0-0.01,0.01-0.01,0.01c-0.03,0.23-0.02,0.5-0.02,0.76c0,0.44,0,0.89,0,1.33c0,1.36,0,2.73,0,4.09
	c-0.08,0.02-0.14,0.06-0.24,0.06c0-0.01,0-0.01,0-0.02c0-1.85,0.01-3.7,0.01-5.54c-0.27-0.17-0.47-0.44-0.69-0.66
	c-0.09-0.1-0.13-0.23-0.31-0.24c-0.13,0.18-0.49,0.46-0.68,0.59c-0.11,0.08-0.3,0.15-0.37,0.28c-0.06,0.11-0.01,0.27-0.04,0.42
	c-0.05,0.26,0.01,0.67,0.01,0.96c0.01,1.14,0.02,2.29,0.03,3.43c-0.13,0-0.25,0.01-0.35,0.04c0-3.02,0-6.05,0-9.07
	c-0.13,0-0.27-0.01-0.4-0.01c-0.07-0.01-0.15-0.01-0.22-0.02c0-0.02-0.01-0.03-0.01-0.04c0.02,0,0.04-0.01,0.05-0.01
	c0.11,0.06,0.51-0.01,0.56-0.07c0.02-0.03,0.03-0.09,0.03-0.14c-0.05-0.03-0.11-0.07-0.16-0.1c-0.13-0.05-0.32-0.02-0.48-0.02
	c0-0.01-0.01-0.02-0.01-0.04c0.12-0.23-0.02-0.73-0.02-0.97c0-0.23,0-0.45-0.04-0.63c0-0.61,0-1.22,0-1.83
	c-0.02-0.03-0.04-0.05-0.06-0.08c0,0-0.01,0.01-0.01,0.01c-0.15,0.17,0.01,0.72-0.04,1c-0.01,0.32-0.01,0.64-0.02,0.95
	c-0.09,0.47-0.04,1.05-0.04,1.59c-0.19,0-0.38,0-0.57,0c-0.03,0.04-0.06,0.08-0.09,0.12c0,0.07,0.01,0.12,0.04,0.16
	c0.18,0.03,0.39,0.04,0.62,0.04c0,0.01,0,0.02,0,0.03c-0.19,0-0.38,0-0.57,0c-0.05-0.03-0.1,0.01-0.12,0.04
	c-0.07,0.11-0.02,0.48-0.02,0.65c0,0.56,0,1.13,0,1.69c0,2.1,0,4.21,0,6.32c-0.01,0-0.02,0-0.03,0c-0.05-0.07-0.11-0.13-0.22-0.13
	c-0.04,0.11-0.31,0.35-0.4,0.44c0,0.19,0,0.39,0,0.58c-0.04,0.01-0.09,0.01-0.13,0.02c0,0.02,0,0.04,0,0.05
	c-0.01,0.32-0.01,0.64-0.02,0.96c0,0.14,0.05,0.32-0.1,0.32c-0.01,0.07-0.02,0.14-0.03,0.21c-0.07,0-0.14,0-0.21,0
	c0-0.61,0-1.22,0-1.83c0-0.29,0.05-0.64-0.01-0.91c-0.01,0-0.01,0-0.02,0c-0.06-0.04-0.15-0.02-0.23-0.02c0-0.01,0-0.01,0-0.02
	c-0.1-0.15-0.03-0.68-0.03-0.92c-0.12-0.02-0.5-0.08-0.63-0.01c0,0.3-0.01,0.6-0.01,0.9c-0.11,0.11-0.07,0.67-0.06,0.9
	c-0.29,0.01-0.58,0.01-0.87,0.02c0,0.01,0,0.01,0,0.02c-0.01,0.04-0.01,0.07-0.02,0.11c-0.07,0.01-0.15,0.04-0.21,0.06
	c0-0.21,0-0.42,0-0.63c-0.05-0.01-0.1-0.01-0.14-0.02c0-0.09,0-0.18,0-0.27c-0.39-0.01-0.79-0.01-1.18-0.02
	c0,0.48-0.01,0.97-0.01,1.46c-0.13,0-0.26,0.01-0.39,0.01c0,0.39-0.01,0.78-0.01,1.17c-0.01,0-0.01,0-0.02,0
	c-0.02,0.01-0.08,0.01-0.09,0.01c-0.05-0.02-0.04-0.11-0.04-0.18c-0.04,0-0.08-0.01-0.13-0.01c-0.07-0.01-0.14-0.01-0.21-0.02
	c0-0.04-0.01-0.08-0.01-0.13c-0.16,0.01-0.18-0.03-0.17-0.2c-0.09,0-0.17,0-0.26,0c0,0.18-0.01,0.36-0.01,0.54
	c-0.02,0-0.04,0-0.05,0c0,0-0.01-0.01-0.01-0.01c0-0.32,0-0.65,0-0.97c-0.01-0.14-0.03-0.29-0.04-0.43
	c-0.05-0.24-0.09-0.49-0.15-0.71c-0.04-0.15,0.02-0.64-0.13-0.63c-0.12,0.07-0.07,0.47-0.11,0.62c-0.08,0.29-0.13,0.63-0.19,0.93
	c0,0.39-0.01,0.78-0.01,1.18c-0.01,0-0.02,0-0.03,0c0-1.03,0-2.07,0-3.1c-0.52-0.01-1.04-0.01-1.55-0.02c0,0.01,0,0.01,0,0.02
	c-0.08,0.13-0.03,0.46-0.02,0.62c-0.07,0-0.13,0.01-0.2,0.01c0,0.41,0,0.82,0,1.23c-0.01,0-0.01,0-0.02,0
	c-0.01-0.15-0.07-0.32-0.11-0.48c-0.01,0-0.01,0-0.02,0c-0.01,0-0.03-0.01-0.04-0.01c0,0-0.01,0.01-0.01,0.01
	c0,0.1-0.07,0.44-0.12,0.47c-0.04,0-0.08,0-0.13,0c-0.06,0-0.11,0.01-0.17,0.01c-0.02-0.15-0.08-0.36-0.04-0.56
	c0.03-0.15,0.04-0.41,0.02-0.56c-0.07-0.04-0.24-0.02-0.34-0.02c0,0.08,0,0.16,0,0.23c-0.25,0-0.5,0-0.75,0c0-0.06,0-0.12,0-0.18
	c-0.14-0.01-0.29-0.01-0.43-0.02c-0.02,0.07-0.03,0.14-0.03,0.24c-0.02,0.01-0.05,0.02-0.07,0.03c-0.04,0-0.07,0.01-0.11,0.01
	c0-0.01,0-0.01,0-0.02c-0.02-0.05-0.01-0.15-0.05-0.18c-0.07-0.04-0.22-0.03-0.32-0.03c0,0-0.01,0.01-0.01,0.01
	c-0.04,0.33-0.02,0.69-0.02,1.04c-0.12,0-0.24,0.01-0.36,0.01c0,0.21,0.04,0.47-0.02,0.65c-0.07,0.01-0.13,0.02-0.2,0.03
	c0,0.22-0.01,0.44-0.01,0.66c-0.04,0-0.08,0-0.12,0c0.01-0.65,0.09-1.15-0.27-1.46c-0.01,0-0.01,0.01-0.02,0.01
	c-0.07,0.14-0.14,0.29-0.21,0.43c0,0.25,0,0.51,0,0.76c0,0-0.01,0.01-0.01,0.01c-0.02,0-0.04,0.01-0.06,0.01c0-0.95,0-1.89,0-2.84
	c-0.01,0-0.02-0.01-0.03-0.01c-0.17-0.11-0.89-0.02-1.12-0.01c-0.01,0.15-0.01,0.3-0.02,0.45c-0.13,0.02-0.09,0.28-0.08,0.42
	c0,0.19-0.01,0.37-0.01,0.56c-0.11,0-0.22,0-0.32,0c0-0.45,0-0.9,0-1.36c-0.23,0-0.45-0.01-0.68-0.01c0-0.37,0-0.74,0-1.11
	c-0.31,0-0.62-0.01-0.92-0.01c-0.06,0.08-0.06,0.42-0.02,0.53c-0.27,0-0.54,0-0.81,0c0,1.34,0,2.67,0,4.01c-0.05,0-0.1,0-0.14,0
	c0-1.37,0-2.74,0-4.11c0.05-0.02,0.03-0.38,0.03-0.47c0-0.49,0-0.99,0-1.48c0-0.14,0.01-0.29,0.01-0.43c0-0.37,0.05-0.85-0.03-1.18
	c-0.01-0.01-0.03-0.02-0.04-0.04c-0.04,0-0.07,0-0.11,0c0-0.37,0-0.74,0-1.1c0,0-0.01-0.01-0.01-0.01
	c-0.04-0.01-0.08-0.02-0.13-0.03c0-0.09-0.01-0.18-0.01-0.27c0-0.06-0.01-0.11-0.01-0.17c-0.01,0-0.01,0-0.02,0
	c-0.05-0.01-0.1-0.01-0.14-0.02c0-0.06,0.01-0.11,0.01-0.17c-0.06-0.01-0.13-0.01-0.19-0.02c0-0.08,0-0.17,0-0.25
	c-0.01,0-0.01,0-0.02,0c-0.04,0-0.08,0-0.13,0c0-0.01,0-0.01,0-0.02c-0.08-0.12-0.12-0.87-0.08-1.11c0.02-0.11,0.03-0.34-0.02-0.43
	c-0.04-0.07-0.12-0.06-0.19-0.1c0-0.19-0.01-0.38-0.01-0.58c-0.04,0-0.08-0.01-0.13-0.01c0,0.18-0.01,0.37-0.01,0.55
	c-0.1,0.01-0.21,0.06-0.26,0.13c-0.05,0.07-0.04,0.23-0.04,0.34c0,0.25-0.01,0.49-0.01,0.74c0,0.16,0.07,0.41-0.05,0.47
	c-0.05,0.01-0.11,0.02-0.16,0.03c0,0.01,0,0.01,0,0.02c-0.01,0.06-0.01,0.13-0.02,0.19c-0.04,0-0.08,0-0.13,0c0,0.01,0,0.01,0,0.02
	c-0.03,0.05-0.01,0.16-0.04,0.22c-0.04,0-0.08,0.01-0.12,0.01c-0.02,0-0.04,0.01-0.05,0.01c0,0.14-0.01,0.28-0.01,0.41
	c0,0-0.01,0.01-0.01,0.01c-0.16,0-0.12,0.14-0.12,0.29c0,0.28,0,0.56,0,0.84c-0.02,0-0.04,0-0.05,0c0,0.1-0.01,0.2-0.01,0.31
	c0,1.91-0.01,3.82-0.01,5.73c-0.04,0-0.09,0-0.13,0c0,0.6,0,1.21,0,1.81c-0.05,0-0.1,0-0.15,0c0-1.58,0-3.17,0-4.75
	c-0.28-0.04-0.62-0.01-0.92-0.01c0,0.81-0.01,1.61-0.01,2.42c0,0.35,0,0.7,0,1.05c-0.01,0-0.02,0-0.04,0
	c-0.08-0.16-0.25-0.26-0.37-0.38c0-0.94,0-1.89,0-2.83c-0.08-0.01-0.17-0.01-0.25-0.02c0-0.07,0-0.15,0-0.22
	c-0.2-0.03-0.45-0.02-0.68-0.02c0-0.01,0-0.01,0-0.02c0-0.54,0-1.07,0-1.61c-0.01,0-0.01,0-0.02,0c-0.14-0.09-0.47-0.04-0.66-0.04
	c-0.11,0.23-0.04,0.61-0.04,0.93c0,0.53,0,1.07,0,1.6c0,0.29,0.03,0.63-0.03,0.87c-0.14,0-0.28,0.01-0.41,0.01
	c-0.08-0.23-0.04-0.64-0.04-0.93c0-0.64,0-1.29,0-1.93c-0.27,0-0.53-0.01-0.8-0.01c0,0.01,0,0.01,0,0.02c0,1.44-0.01,2.88-0.01,4.32
	c-0.05,0.01-0.1,0.01-0.14,0.02c0-0.08,0-0.16,0-0.23c-0.09,0-0.19-0.01-0.28-0.01c0-0.11-0.01-0.23-0.01-0.34
	c0-0.08-0.01-0.16-0.01-0.24c-0.1,0-0.19-0.01-0.29-0.01c0-0.07,0-0.13,0-0.2c-0.03-0.01-0.07-0.02-0.1-0.03c0-0.26,0-0.52,0-0.77
	c0-0.38-0.01-0.77-0.01-1.15c-0.36,0-0.72-0.01-1.08-0.01c-0.01,0-0.01,0.01-0.02,0.01c0,0.58-0.01,1.17-0.01,1.75
	c-0.04,0-0.07,0.01-0.11,0.01c0-0.58-0.01-1.17-0.01-1.75c-0.33-0.01-0.66-0.01-0.99-0.02c-0.01,0.49-0.01,0.98-0.02,1.47
	c-0.08,0-0.17,0-0.25,0c0,0.01,0,0.01,0,0.02c-0.05,0.08-0.02,0.43-0.02,0.56c-0.01,0-0.01,0-0.02,0c-0.02-0.03-0.04-0.04-0.08-0.04
	c-0.06,0.09-0.15,0.13-0.15,0.29c-0.01,0.03-0.01,0.07-0.02,0.1c-0.03,0.02-0.07,0.04-0.1,0.06c0,0.38,0,0.77,0,1.15
	c-0.04,0-0.08,0.01-0.13,0.01c0-1.32,0-2.65,0-3.97c-0.03-0.04-0.07-0.08-0.1-0.12c0.01-0.14,0.01-0.28,0.02-0.42
	c-0.01-0.01-0.2-0.19-0.21-0.19c0-0.35,0-0.7,0-1.04c-0.09-0.08-0.15-0.17-0.25-0.24c0.08-0.23-0.05-0.49-0.09-0.66
	c0-0.13,0-0.25,0-0.38c-0.05-0.01-0.07-0.04-0.1-0.07c0-0.09,0-0.17,0-0.26c-0.03-0.1-0.07-0.21-0.1-0.31c0-0.08,0-0.17,0-0.25
	c-0.02-0.02-0.04-0.05-0.06-0.07c0-0.52,0.01-1.04,0.01-1.56c-0.01,0-0.03-0.01-0.04-0.01c0,0-0.01,0-0.01,0
	c-0.02,0.02-0.02,0.05-0.02,0.09c-0.16,0.26,0.01,0.87-0.05,1.23c-0.01,0.08-0.04,0.18-0.05,0.24c0,0.11,0,0.22,0,0.32
	c-0.04,0.07-0.09,0.14-0.13,0.21c0,0.09-0.01,0.18-0.01,0.27c-0.03,0.08-0.11,0.1-0.14,0.16c0,0.1,0,0.19,0,0.29
	c-0.13,0.05-0.1,0.23-0.1,0.4c-0.06,0.03-0.06,0.08-0.05,0.18c-0.05,0.1-0.05,0.32-0.04,0.45c-0.03,0.02-0.05,0.03-0.07,0.05
	c0,0.33,0,0.65,0,0.98c-0.07,0-0.11,0.01-0.13,0.05c-0.03,0.05-0.01,0.13-0.01,0.19c-0.06,0.01-0.11,0.01-0.17,0.02
	c0,0.01,0,0.02,0,0.03c-0.01,1.45-0.01,2.89-0.02,4.34c-0.04,0-0.07,0.01-0.11,0.01c0-0.07-0.01-0.15-0.01-0.22
	c-0.16-0.11-0.09-0.38-0.09-0.62c-0.01-0.52-0.01-1.03-0.02-1.55c-0.11-0.01-0.26-0.06-0.41-0.04c-0.11,0-0.22,0.01-0.33,0.01
	c-0.35-0.06-0.87-0.04-1.18,0.03c0,0.9,0,1.81,0,2.71c0,0-0.01,0.01-0.01,0.01c-0.09,0.01-0.17-0.01-0.27-0.02
	c0,0.14-0.01,0.28-0.01,0.42c-0.01,0.01-0.02,0.01-0.03,0.02c0-0.44,0-0.88,0-1.32c-0.19,0-0.38,0-0.57,0
	c-0.01,0.47-0.01,0.94-0.02,1.41c-0.06,0-0.13,0-0.19,0c0-0.58,0-1.17,0-1.75c-0.43,0-0.86,0-1.29,0c0,0.8-0.01,1.6-0.01,2.4
	c-0.08,0-0.17,0-0.25,0c0-0.41-0.01-0.81-0.01-1.22c-0.42,0-0.84-0.01-1.26-0.01c-0.11,0.41-0.04,1.06-0.04,1.55
	c0,1.05,0,2.1,0,3.14c-0.09,0.05-0.19,0.16-0.22,0.27c-0.01,0-0.01,0-0.02,0c-0.04-0.34-0.03-0.74-0.03-1.1c0-0.58,0-1.17,0-1.75
	c0-0.32-0.01-0.64-0.01-0.95c0-0.31,0-0.62,0-0.93c0.03-0.15-0.01-0.3,0.07-0.39c0.21-0.21,1.08-0.12,1.48-0.12
	c-0.01-0.39-0.12-1.06,0.21-1.16c0.14-0.04,0.35,0,0.52-0.02c0.26-0.02,0.58-0.04,0.81,0.02c0.12,0.03,0.29,0.06,0.31,0.19
	c0.01,0.04,0.02,0.09,0.03,0.13c0.06,0,0.13,0,0.19,0c0.11,0,0.22,0.01,0.33,0.01c0-0.42,0-0.84,0-1.26c0-0.22,0-0.47,0.13-0.56
	c0.13-0.09,0.41-0.04,0.6-0.04c0.48,0,0.95,0,1.43,0c0-0.57,0-1.14,0-1.71c0.04-0.15,0.21-0.22,0.26-0.4
	c0.06-0.24-0.04-0.51,0.01-0.75c0.04-0.22,0.14-0.38,0.19-0.59c0.01-0.18,0.01-0.37,0.02-0.55c0.05-0.13,0.1-0.26,0.15-0.4
	c0.12-0.3,0.22-0.62,0.29-0.95c0-0.12,0-0.24,0-0.36c0-0.36-0.03-0.76,0.05-1.04c0.04-0.13,0.08-0.31,0.22-0.32
	c0.38-0.19,0.5,0.43,0.44,0.77c-0.04,0.21-0.04,0.52,0,0.73c0.01,0.12,0.02,0.24,0.03,0.36c0.04,0.18,0.07,0.38,0.11,0.55
	c0,0.07,0,0.14,0,0.22c0.08,0.33,0.19,0.66,0.19,1.11c0.32,0.22,0.25,0.75,0.25,1.27c0.12,0.08,0.19,0.22,0.19,0.42
	c0,0.07,0,0.15,0,0.22c0.03,0.06,0.07,0.12,0.1,0.18c0,0.56,0,1.11,0,1.67c0.01,0,0.02,0,0.03,0c0.03-0.03,0.13-0.04,0.15-0.07
	c0-0.21,0-0.41,0-0.62c0-0.07,0.01-0.13,0.01-0.2c0-0.24-0.02-0.51,0.13-0.61c0.14-0.1,0.41-0.05,0.63-0.05c0.48,0,0.95,0,1.43,0
	c0.26,0,0.51,0,0.59,0.18c0.12,0.29,0.03,1.07,0.03,1.45c0,0.28-0.03,0.55,0.23,0.57c0-0.82-0.01-1.64-0.01-2.46
	c-0.05-0.26-0.04-0.81,0.07-0.96c0.12-0.16,0.7-0.21,0.99-0.14c0.09,0.03,0.19,0.05,0.28,0.08c0-0.12,0-0.23,0-0.35
	c0.05-0.07,0.05-0.18,0.13-0.22c0.19-0.1,0.96-0.07,1.05,0.07c0.19,0.3,0.09,1.11,0.09,1.56c0.19,0,0.43-0.02,0.55,0.05
	c0.11,0.08,0.06,0.15,0.24,0.22c0.01-0.14,0.08-0.26,0.24-0.25c0.11-0.01,0.22-0.01,0.33-0.02c0.21,0,0.42-0.01,0.64-0.01
	c0-0.59,0-1.17,0-1.76c0-0.4-0.02-0.84,0.05-1.18c0-0.34,0-0.68,0-1.02c0.02-0.07,0.1-0.12,0.13-0.18c0.04-0.08,0.01-0.28,0.04-0.37
	c0.04-0.03,0.17-0.08,0.19-0.13c0-0.03,0.01-0.07,0.01-0.1c0.04-0.04,0.08-0.07,0.13-0.11c0.04-0.07,0.02-0.17,0.09-0.21
	c0.04-0.03,0.11-0.03,0.13-0.07c0-0.43,0.01-0.85,0.01-1.28c0.02-0.07,0.09-0.21,0.15-0.25c0.05-0.02,0.1-0.05,0.14-0.07
	c0-0.12,0-0.23,0-0.35c0.06-0.08,0.08-0.24,0.22-0.24c0.05-0.01,0.1-0.01,0.14-0.02c0.26,0,0.33,0.17,0.33,0.43
	c0,0.07,0,0.14,0,0.22c0.38,0.33,0.24,0.95,0.24,1.58c0.18,0.08,0.08,0.14,0.17,0.27c0.03,0.05,0.09,0.03,0.13,0.06
	c0.05,0.07,0.1,0.14,0.15,0.21c0.02,0.05,0.05,0.1,0.07,0.15c0,0.08,0.01,0.17,0.01,0.25c0.03,0.08,0.12,0.09,0.14,0.19
	c0.08,0.28,0,0.64,0,0.93c0.27,0.14,0.2,0.6,0.2,0.99c0,0.9,0,1.79,0,2.69c0.11,0,0.23,0,0.34,0c0-0.18-0.01-0.39,0.11-0.48
	c0.07-0.05,0.16-0.04,0.26-0.05c0.22-0.04,0.88-0.04,1.02,0.05c0.22,0.15,0.13,0.74,0.13,1.07c0.23,0,0.42,0.03,0.58,0.06
	c0.02-0.06,0.06-0.11,0.12-0.13c0.16-0.07,0.85-0.06,1.05-0.03c0.13,0.02,0.27-0.01,0.36,0.05c0.11,0.07,0.1,0.25,0.13,0.41
	c0.07,0.37,0.01,0.8,0.01,1.2c0.13,0,0.27,0.02,0.32,0.1c0.04,0.05,0.02,0.12,0.09,0.13c0.03-0.09,0.15-0.13,0.27-0.13
	c0-0.3-0.09-0.79,0.1-0.95c0.14-0.12,0.37-0.01,0.58-0.05c0.2-0.04,0.5-0.13,0.74-0.05c0.11,0.03,0.1,0.15,0.16,0.18
	c0.08,0,0.16,0,0.24,0c0.03-0.12,0.09-0.16,0.16-0.22c0.08-0.01,0.17-0.02,0.25-0.03c0.52-0.09,0.51,0.28,0.5,0.69
	c0.01,0,0.02,0,0.03,0c0.02-0.03,0.02-0.07,0.02-0.13c-0.04-0.09,0-0.47,0.04-0.52c0.06-0.04,0.11-0.07,0.17-0.11
	c0-0.13,0-0.26,0-0.4c0.06-0.07,0.06-0.19,0.14-0.23c0.24-0.12,0.98-0.03,1.31-0.03c0.21,0,0.44-0.03,0.57,0.05
	c0.08,0.05,0.12,0.16,0.12,0.29c0.24,0.02,0.37,0.14,0.41,0.36c0.01,0.11,0.01,0.22,0.02,0.33c0.1,0.5,0.21,0.94,0.22,1.55
	c0,0,0.01,0.01,0.01,0.01c0.24,0.01,0.26,0.17,0.41,0.25c0-0.21,0-0.41,0-0.62c0.15-0.17,0.08-0.26,0.4-0.29
	c-0.01-0.35-0.11-1.1,0.05-1.34c0.16-0.23,0.76-0.13,1.1-0.13c0.18,0,0.38-0.01,0.48,0.06c0.13,0.09,0.2,0.33,0.25,0.5
	c0.01,0.06,0.02,0.11,0.03,0.17c0.17,0,0.34,0.01,0.51,0.01c0.02-0.34,0.04-0.69,0.06-1.03c-0.02-0.18-0.04-0.52,0.04-0.64
	c0.13-0.19,0.96-0.24,1.11-0.04c0.13,0.17,0.08,0.57,0.07,0.84c0.32,0.02,0.29,0.34,0.29,0.68c0,0,0.01,0,0.01,0c0,0,0-0.01,0-0.01
	c0.07-0.1,0.28-0.37,0.37-0.43c0.05-0.02,0.11-0.04,0.16-0.06c0-2.77,0-5.54,0-8.31c0.06-0.08,0.04-0.26,0.08-0.35
	c0.09-0.21,0.33-0.26,0.64-0.26c-0.01-0.89,0.05-1.76,0.05-2.64c0-0.28-0.03-0.86,0.22-0.88C42.47,4.96,42.6,4.98,42.65,5
	c0.29,0.08,0.26,0.37,0.26,0.73c-0.01,0.22-0.01,0.44-0.02,0.66c0.01,0.28,0.01,0.55,0.02,0.83c0,0.1,0.01,0.21,0.01,0.31
	C42.92,7.86,42.93,8.18,42.94,8.51L42.94,8.51z M42.46,10.15c0.07,0,0.14,0,0.22,0c0,4.84,0,9.67,0,14.51c-0.07,0-0.14,0-0.22,0
	C42.46,19.83,42.46,14.99,42.46,10.15L42.46,10.15z M24.31,12.4c0.08,0,0.16,0,0.23,0c0,2.84,0,5.67,0,8.51
	c-0.08,0-0.16,0.01-0.23,0.01C24.31,18.08,24.31,15.24,24.31,12.4L24.31,12.4z M46.56,13.4c0.04,0,0.09,0,0.13,0c0,2.5,0,5,0,7.49
	c-0.04,0-0.09,0-0.13,0C46.56,18.39,46.56,15.89,46.56,13.4L46.56,13.4z M44.76,13.56c0.07,0,0.14,0,0.22,0c0,2.37,0,4.75,0,7.12
	c-0.07,0-0.14,0-0.22,0C44.76,18.31,44.76,15.93,44.76,13.56L44.76,13.56z M13.12,13.65c0.04,0,0.09,0,0.13,0c0,2.28,0,4.55,0,6.83
	c-0.04,0-0.09,0-0.13,0C13.12,18.2,13.12,15.92,13.12,13.65L13.12,13.65z M18.65,15.6c0.05,0,0.11,0,0.16,0c0,2.21,0,4.42,0,6.63
	c-0.05,0-0.11,0-0.16,0C18.65,20.02,18.65,17.81,18.65,15.6L18.65,15.6z M13.86,15.7c0.1,0,0.2,0,0.3,0c0,1.55,0,3.1,0,4.65
	c-0.1,0-0.2,0-0.3,0C13.86,18.8,13.86,17.25,13.86,15.7L13.86,15.7z M16.9,16.68c0.04,0,0.09,0,0.13,0c0,1.37,0,2.75,0,4.12
	c-0.04,0-0.09,0-0.13,0C16.9,19.43,16.9,18.06,16.9,16.68L16.9,16.68z M20.27,16.79c0.07,0,0.14,0,0.22,0c0,2.24,0,4.48,0,6.72
	c-0.07,0-0.14,0-0.22,0C20.27,21.27,20.27,19.03,20.27,16.79L20.27,16.79z M21.93,17.05c0.08,0,0.17,0,0.25,0c0,4.72,0,9.44,0,14.16
	c-0.08,0-0.17,0-0.25,0C21.93,26.49,21.93,21.77,21.93,17.05L21.93,17.05z M28.54,17.52c0.09,0,0.18,0,0.27,0c0,1.06,0,2.13,0,3.19
	c-0.09,0-0.18,0-0.27,0C28.54,19.65,28.54,18.58,28.54,17.52L28.54,17.52z M34.46,17.57c0.06,0,0.11,0,0.17,0c0,1.02,0,2.04,0,3.06
	c-0.06,0-0.11,0-0.17,0C34.46,19.62,34.46,18.6,34.46,17.57L34.46,17.57z M26.05,17.79c0.04,0,0.09,0,0.13,0c0,5,0,10,0,15
	c-0.04,0-0.09,0-0.13,0C26.05,27.79,26.05,22.79,26.05,17.79L26.05,17.79z M11.11,17.87c0.03,0,0.06,0,0.09,0
	c0,0.98,0.01,1.95,0.01,2.93c-0.03,0-0.06,0.01-0.09,0.01C11.12,19.83,11.11,18.85,11.11,17.87L11.11,17.87z M41.5,18.28
	c0.07,0,0.14,0,0.22,0c0,1.72,0.01,3.43,0.01,5.15c-0.07,0-0.15,0-0.22,0C41.5,21.72,41.5,20,41.5,18.28L41.5,18.28z M32.04,18.41
	c0.04,0,0.09,0,0.13,0c0,0.67,0,1.35,0,2.02c-0.04,0-0.09,0-0.13,0C32.04,19.76,32.04,19.08,32.04,18.41L32.04,18.41z M43.8,18.62
	c0.07,0,0.15,0,0.22,0c0,1,0,2,0,3c-0.07,0-0.15,0.01-0.22,0.01C43.8,20.62,43.8,19.62,43.8,18.62L43.8,18.62z M38.73,18.65
	c0.22,0,0.44,0,0.66,0c0,0.63,0,1.27,0,1.9c-0.22,0-0.44,0-0.66,0C38.73,19.92,38.73,19.29,38.73,18.65L38.73,18.65z M8.79,19.22
	c0.05,0,0.11,0,0.16,0c0,1,0,2.01,0,3.01c-0.05,0-0.11,0-0.16,0C8.79,21.23,8.79,20.22,8.79,19.22L8.79,19.22z M7.05,20.55
	c0.04,0,0.09,0,0.13,0c0,1.15,0,2.29,0,3.44C7.14,23.99,7.1,24,7.05,24C7.05,22.85,7.05,21.7,7.05,20.55L7.05,20.55z M13.46,20.74
	c3.92-0.06,6.09,1.93,7.31,4.58c-0.1,0-0.2,0-0.3,0c-0.05-0.16-0.18-0.31-0.27-0.44c-0.17-0.25-0.34-0.48-0.52-0.72
	c-0.1-0.1-0.2-0.21-0.3-0.31c-0.22-0.28-0.51-0.52-0.79-0.73c-0.72-0.54-1.49-1-2.45-1.31c-0.3-0.1-0.61-0.14-0.94-0.22
	c-0.66-0.15-1.84-0.17-2.53-0.02c-0.71,0.16-1.33,0.33-1.92,0.59c-0.41,0.18-0.79,0.42-1.13,0.67c-1.42,1-2.4,2.34-2.97,4.2
	c-0.11,0.36-0.14,0.75-0.22,1.14c-0.01,0.15-0.02,0.3-0.03,0.45c-0.03,0.14-0.04,0.37-0.01,0.51c0,0.14,0.01,0.28,0.01,0.41
	c0.07,0.35,0.07,0.71,0.15,1.02c0.09,0.35,0.14,0.67,0.27,0.99C7.4,33,8.22,34.16,9.38,35c0.44,0.32,0.88,0.61,1.41,0.84
	c0.13,0.06,0.27,0.14,0.42,0.18c0,0,0,0.01,0,0.01c-0.01,0-0.02,0-0.03,0c-0.22-0.08-0.43-0.16-0.65-0.24
	c-0.43-0.19-0.84-0.42-1.2-0.67c-1.37-0.96-2.32-2.29-2.98-3.96c-0.1-0.26-0.15-0.53-0.22-0.82c-0.09-0.34-0.11-0.71-0.18-1.09
	c-0.01-0.15-0.01-0.3-0.02-0.45c-0.04-0.21-0.03-0.54,0.01-0.75c0.01-0.17,0.02-0.34,0.04-0.51c0.12-0.6,0.19-1.16,0.39-1.66
	c0.26-0.67,0.57-1.28,0.95-1.82c0.22-0.31,0.48-0.59,0.71-0.89c0.15-0.19,0.36-0.38,0.55-0.53C8.84,22.43,9.09,22.2,9.37,22
	c0.62-0.44,1.35-0.74,2.16-0.99c0.4-0.12,0.83-0.15,1.27-0.23C13.03,20.77,13.24,20.75,13.46,20.74L13.46,20.74z M22.63,21
	c0.93,0,1.86,0,2.79,0c0,0.17,0,0.35,0,0.52c-0.77,0-1.53,0-2.3,0c0,4.85,0,9.7,0,14.55c-0.16,0-0.33,0-0.49,0
	C22.63,31.05,22.63,26.02,22.63,21L22.63,21z M35.34,21c0,0.9,0,1.81,0,2.71c-0.37,0-0.74,0-1.11,0c0-0.61-0.01-1.22-0.01-1.82
	c-1.35,0-2.7,0-4.05,0c0,4.73,0,9.46,0,14.19c-0.13,0-0.27,0-0.4,0c0-4.12,0-8.24,0-12.36c-0.93,0-1.86,0-2.79,0c0-0.9,0-1.8,0-2.7
	C29.77,21,32.56,21,35.34,21L35.34,21z M43.13,36.07c-0.63,0-1.27,0-1.9,0c0-1.69,0-3.37,0-5.06c-0.12,0-0.23,0-0.35,0
	c0,1.69,0,3.37,0,5.06c-0.18,0-0.35,0-0.53,0c0-1.86,0-3.71,0-5.57c-1.65-3.17-3.3-6.34-4.95-9.51c0.37,0,0.74,0,1.1,0
	c2.21,4.22,4.42,8.43,6.62,12.65C43.13,34.46,43.13,35.26,43.13,36.07L43.13,36.07z M36.91,21c0.51,0,1.03,0,1.54,0
	c1.1,2.31,2.2,4.63,3.29,6.94c0-0.01,0.01-0.01,0.01-0.02c1.09-2.31,2.18-4.62,3.27-6.93c1.02,0,2.03,0,3.05,0c0,0.01,0,0.01,0,0.02
	c-1.65,3.17-3.3,6.33-4.95,9.5c0,0.79,0,1.59,0,2.38c0,0-0.01,0-0.01,0c0-0.01,0-0.01,0-0.02c-0.14-0.17-0.2-0.41-0.31-0.6
	c-0.33-0.55-0.57-1.16-0.9-1.72c-0.77-1.46-1.54-2.92-2.31-4.38c-0.19-0.38-0.39-0.76-0.58-1.14c-0.37-0.7-0.74-1.4-1.11-2.1
	c-0.09-0.19-0.19-0.37-0.28-0.56c-0.18-0.31-0.32-0.65-0.5-0.96C37.06,21.29,36.95,21.14,36.91,21L36.91,21z M13.56,21.84
	c3.2-0.05,5.32,1.51,6.5,3.48c-0.82,0-1.64,0-2.46,0c-0.16-0.26-0.42-0.52-0.66-0.71c-0.15-0.11-0.28-0.25-0.43-0.36
	c-0.44-0.31-0.95-0.53-1.53-0.68c-0.22-0.06-0.46-0.06-0.69-0.11c-0.12,0-0.23-0.01-0.35-0.01c-0.22-0.04-0.72,0-0.92,0.04
	c-0.3,0.06-0.59,0.11-0.86,0.2c-1.6,0.53-2.73,1.8-3.24,3.43c-0.21,0.67-0.28,1.8-0.08,2.56c0.48,1.86,1.55,3.06,3.22,3.72
	c0.76,0.3,2.04,0.42,2.96,0.17c0.74-0.2,1.29-0.52,1.81-0.93c0.15-0.15,0.3-0.3,0.45-0.45c0.06-0.08,0.13-0.16,0.19-0.24
	c0.99,0,1.99,0,2.98,0c0,0.01,0,0.01,0,0.02c-0.07,0.15-0.14,0.29-0.22,0.44c-0.19,0.33-0.39,0.65-0.61,0.94
	c-0.96,1.29-2.32,2.17-4.11,2.64c-1.09,0.29-2.64,0.18-3.61-0.13c-2.17-0.69-3.69-2.04-4.55-4.04c-0.2-0.46-0.34-0.95-0.47-1.49
	c-0.05-0.21-0.04-0.41-0.08-0.64c-0.04-0.22-0.04-0.48-0.04-0.74c0-0.09,0-0.18,0-0.27c0.02-0.21,0.04-0.42,0.05-0.63
	c0.09-0.42,0.14-0.82,0.26-1.19c0.67-2.08,2.07-3.61,3.98-4.45c0.48-0.21,1-0.34,1.56-0.48c0.22-0.03,0.45-0.06,0.67-0.09
	C13.38,21.85,13.47,21.85,13.56,21.84L13.56,21.84z M25.42,21.88c0,4.73,0,9.46,0,14.2c-0.64,0-1.29,0-1.93,0
	c0-4.73-0.01-9.46-0.01-14.19C24.13,21.88,24.77,21.88,25.42,21.88L25.42,21.88z M30.54,22.25c1.11,0,2.21,0,3.32,0
	c0,0.49,0,0.98,0,1.46c-0.43,0-0.87,0-1.3,0c0,4.12,0,8.24,0,12.36c-0.67,0-1.35,0-2.02,0C30.54,31.47,30.54,26.86,30.54,22.25
	L30.54,22.25z M28.92,24.42c0.11,0,0.22,0,0.33,0c0,3.5,0,7.01,0,10.51c-0.11,0-0.22,0-0.33,0C28.92,31.43,28.92,27.92,28.92,24.42
	L28.92,24.42z M11.21,36.04c0.01,0,0.02,0.01,0.03,0.01C11.23,36.04,11.22,36.04,11.21,36.04L11.21,36.04z M11.24,36.05
	c0.01,0,0.01,0,0.02,0c0,0,0,0.01,0,0.01C11.25,36.05,11.24,36.05,11.24,36.05L11.24,36.05z M11.26,36.06c0.01,0,0.01,0,0.02,0
	c0,0,0,0.01,0,0.01C11.28,36.06,11.27,36.06,11.26,36.06L11.26,36.06z" />
</svg>