<?xml version="1.0" encoding="utf-8"?>
<!-- Generator: Adobe Illustrator 24.3.0, SVG Export Plug-In . SVG Version: 6.00 Build 0)  -->
<svg version="1.1" id="Слой_1" xmlns="http://www.w3.org/2000/svg" xmlns:xlink="http://www.w3.org/1999/xlink" x="0px" y="0px"
	 viewBox="0 0 85 85" style="enable-background:new 0 0 85 85;" xml:space="preserve">
<style type="text/css">
	.st0{fill:#E9DDBE;}
</style>
<g id="Group_206" transform="translate(0 0)">
	<g id="Group_205" transform="translate(0 0)">
		<path id="Path_68" class="st0" d="M44.4,61.4H29.2c-0.9,0-1.7-0.8-1.7-1.7V29.3c0-0.9,0.8-1.7,1.7-1.7h15.2c0.9,0,1.7-0.8,1.7-1.7
			s-0.8-1.7-1.7-1.7H29.2c-2.8,0-5.1,2.3-5.1,5.1v30.4c0,2.8,2.3,5.1,5.1,5.1h15.2c0.9,0,1.7-0.8,1.7-1.7
			C46.1,62.2,45.4,61.4,44.4,61.4L44.4,61.4z"/>
	</g>
</g>
<g id="Group_208" transform="translate(13.522 8.451)">
	<g id="Group_207">
		<path id="Path_69" class="st0" d="M50.8,34.9L40.6,24.7c-0.7-0.7-1.7-0.6-2.4,0s-0.6,1.7,0,2.4l0,0l7.3,7.2H25.9
			c-0.9,0-1.7,0.8-1.7,1.7c0,0.9,0.8,1.7,1.7,1.7h19.7L38.2,45c-0.7,0.7-0.7,1.7,0,2.4s1.7,0.7,2.4,0l10.3-10.1
			C51.5,36.6,51.5,35.5,50.8,34.9C50.8,34.9,50.8,34.9,50.8,34.9L50.8,34.9z"/>
	</g>
</g>
</svg>
