<?xml version="1.0" encoding="utf-8"?>
<!-- Generator: Adobe Illustrator 24.3.0, SVG Export Plug-In . SVG Version: 6.00 Build 0)  -->
<svg version="1.1" id="Слой_1" xmlns="http://www.w3.org/2000/svg" xmlns:xlink="http://www.w3.org/1999/xlink" x="0px"
	y="0px" viewBox="0 0 85 85" style="enable-background:new 0 0 85 85;" xml:space="preserve">
	<style type="text/css">
		.st0 {
			fill: var(--gold);
		}
	</style>
	<g id="Group_220" transform="translate(0)">
		<path id="Path_254" class="st0" d="M57.5,49.5c-2.4-2.4-5.2-4.2-8.4-5.3c5.8-4,7.3-11.9,3.3-17.8s-11.9-7.3-17.8-3.3
		S27.3,35.1,31.3,41c0.9,1.3,2,2.4,3.3,3.3c-8.9,3.1-14.9,11.5-14.9,20.9h3.5c-0.1-10.3,8.2-18.7,18.5-18.8
		c10.3-0.1,18.7,8.2,18.8,18.5c0,0.1,0,0.2,0,0.3h3.5C63.9,59.3,61.6,53.7,57.5,49.5z M41.8,43.1c-5.1,0-9.3-4.2-9.3-9.3
		s4.2-9.3,9.3-9.3s9.3,4.2,9.3,9.3C51.1,38.9,47,43,41.8,43.1z" />
	</g>
</svg>