<svg xmlns="http://www.w3.org/2000/svg" width="666.667" height="666.667" version="1.0" viewBox="0 0 500 500"><path d="M109.5 115c-11.9 1.9-24.6 7.4-31.6 13.7l-4 3.7.3 35 .3 35.1 2.8 7.8c3 8.6 6 13.8 11.4 19.7 3.5 4 3.5 4 2.3 8.6-.7 2.5-2.2 5.2-3.4 5.9s-11.3 5.3-22.6 10.1-21.1 9.2-21.8 9.8c-.8.5-3.1 4.5-5.3 8.8L34 281v104h14v-99.5l2.8-4.9 2.7-5 18-7.8c9.9-4.3 18.8-8.1 19.9-8.4 1.4-.5 4.4 1.9 12.7 10.2l10.9 10.9V318h14v-37.5l10.9-10.9 11-10.9 19.7 8.6 19.8 8.6 2.7 5.3 2.8 5.3.1 49.2V385h14l-.1-51.8v-51.7l-4.3-8.5-4.4-8.5-23.3-10.1-23.4-10.1-1.7-5.3-1.8-5.3 5-5.3c2.7-3 6-7.8 7.4-10.8 5.1-10.7 5.6-15.3 5.6-52.3v-34.2l-4.7-3.6c-6-4.6-15.1-8.9-22.8-10.9-7.7-1.9-24.3-2.8-32-1.6m30.5 16.4c2.5.9 6.9 2.8 9.8 4.3l5.2 2.6v14.4c0 8.9-.4 14.3-1 14.3-1.7 0-5-3.9-5-6 0-1.1-.9-2.9-2-4-1.9-1.9-3.3-2-25.4-2H98.1l-2 2.6c-1.2 1.5-2.1 3.5-2.1 4.5 0 1.7-3.4 4.9-5.2 4.9-.5 0-.7-6.4-.6-14.3l.3-14.2 7.4-3.7c4.1-2 9.5-4.1 12-4.7 6.7-1.5 26.6-.7 32.1 1.3m.2 43c4 4.2 6.5 5.8 10.2 6.8l4.9 1.3-.6 9c-1.4 22.5-12.5 36.1-30.2 37.3-21.2 1.3-33.9-12.1-36-38.4l-.7-8.1 3.9-.6c4.7-.8 11.8-5.7 14.1-9.8l1.7-2.9H135zm-25.1 68.8c6.6 1 16.1.3 21-1.7 1.3-.5 2 .2 2.9 3.1l1.2 3.6-9.1 9.2-9.1 9.1-9.4-9.4c-9.3-9.3-9.3-9.3-8.3-12.7.7-2.4 1.5-3.3 2.5-2.9.8.3 4.5 1 8.3 1.7"/><path d="M189 162v7h209v40H189v14h136.8c131.3 0 137-.1 138.5-1.8 1.5-1.6 1.7-5.4 1.7-32.5 0-30.5 0-30.6-2.2-32.1-2-1.4-16.8-1.6-138.5-1.6H189zm263 27v20h-40v-40h40z"/><path d="M189 189v7h190v-14H189zM229 250v7h169v40H229v14h116.8c112 0 117-.1 118.5-1.8 1.5-1.6 1.7-5.4 1.7-32.4 0-28.3-.1-30.6-1.8-32.1-1.7-1.6-11.4-1.7-118.5-1.7H229zm223 27v20h-40v-40h40z"/><path d="M229 277v7h150v-14H229zM229 344.5v7.5h15v-15h-15zM256 344.5v7.5h204v-15H256zM67 364.5V385h15v-41H67zM162 364.5V385h14v-41h-14zM229 371.5v7.5h163v-15H229zM405 371.5v7.5h14v-15h-14z"/></svg>