<svg xmlns="http://www.w3.org/2000/svg" xml:space="preserve" viewBox="0 0 2000 2000"><path fill="#132E85" d="M652.9 545.7v162.5H513.6c-61.5 0-109.3.6-147.4 23.3-71.5 42.4-109.7 99.1-133.3 189.6-5 19.2-12.4 62.5-7.6 87.2.2 5.6.4 11.2.5 16.8 3.7 18.9 4 37.6 9.2 54.7 10.2 33.4 21.8 63.3 38.5 89.9 9.2 14.7 21 27.3 31.4 40.6 4.7 6 11.8 11.5 17.9 16.3 32.5 25.3 55.4 40.2 103 51.5 9.5 2.3 22.5 1.1 33.6 1.1h276.4c-.2-48-.4-96.1-.5-144.1h1.1c54.2 45.3 108.4 90.7 162.6 136 17.3 14.1 34.7 28.2 52 42.3V1443H460.4c-33.4 0-65.1.6-92.7-6-55.4-13.1-100.5-32.5-140.4-60.7-14.6-10.3-26.9-23.3-40.7-34.1-11.3-8.9-21.4-19.1-30.4-30.3-42.1-53.8-71.4-102.6-94.9-176.1-8.5-26.7-10.8-55.6-16.8-85.6-.7-13-1.4-26-2.2-39-2.4-13-1.8-33.6.5-46.1l1.6-26.5c3.9-19.7 5.5-40 10.3-58 5.1-19.2 8.2-37.3 15.2-54.7 45.1-112.7 101-180.8 199.7-239.5 33.6-20 73.9-29 118.7-37.9 28.2-5.6 63.1-2.7 94.9-2.7z"/><path fill="#132E85" d="M719 545h220v263.9l342 313.8V1443h-220v-241.7c-114-105.7-228-211.3-342-317z"/><path fill="#132E85" d="M1046 545h490.6c33.4 0 65.1-.6 92.7 6 55.4 13.1 100.5 32.5 140.4 60.7 14.6 10.3 26.9 23.3 40.7 34.1 11.3 8.9 21.4 19.1 30.4 30.3 42.1 53.8 71.4 102.6 94.8 176.1 8.5 26.7 10.8 55.6 16.8 85.6.7 13 1.4 26 2.2 39 2.4 13 1.8 33.6-.6 46l-1.6 26.6c-3.9 19.7-5.6 40-10.3 58-5.1 19.2-8.3 37.3-15.2 54.7-44.8 112.6-100.7 180.8-199.5 239.5-33.6 20-73.9 29-118.7 37.9-28.2 5.6-63.1 2.7-94.9 2.7h-169.7v-162.5h139.3c61.5 0 109.3-.6 147.4-23.3 71.4-42.4 109.8-99.1 133.3-189.6 5-19.2 12.4-62.5 7.6-87.2l-.5-16.8c-3.7-18.9-4-37.6-9.2-54.7-10.2-33.4-21.8-63.3-38.5-89.9-9.2-14.7-20.9-27.2-31.4-40.6-4.7-6-11.8-11.5-17.9-16.3-32.5-25.2-55.4-40.2-103-51.5-9.5-2.3-22.5-1.1-33.6-1.1h-276.5l.6 144.1h-1.1c-54.2-45.3-108.4-90.7-162.6-136-17.3-14.1-34.7-28.2-52-42.3z"/></svg>