<svg xmlns="http://www.w3.org/2000/svg" width="6666.667" height="2666.667" version="1.0" viewBox="0 0 5000 2000"><g fill="#2d2d2d"><path d="M745.5 355.6c-13.3 1.3-33.1 3.6-33.6 4-.3.2-6.4 1-13.5 1.9-17.2 2-28.1 4.1-59.9 11.6-24.2 5.8-84.9 25.8-104 34.4-3.3 1.5-8.2 3.5-11 4.6-2.7 1-11.3 5.3-19 9.5s-17.4 9.3-21.7 11.4c-4.2 2.2-12.9 7.1-19.5 11.1-6.5 3.9-14.5 8.7-17.8 10.6-7.9 4.5-11.1 7-10.2 7.9.4.5 2.1 0 3.6-.9 2.7-1.6 11.4-5.4 34.6-15.1 16.2-6.9 72-24.4 83-26.1 3.5-.6 26.6-4.8 48.6-8.9 11.3-2.2 42.8-5.4 65.1-6.7 29.4-1.7 79.4.4 105.3 4.6 8.3 1.3 17.5 2.6 20.5 3 25.3 3.1 77 16.1 108.6 27.4 37.9 13.6 96 42.5 127.4 63.4 14.9 9.9 50.1 36.8 67 51.1 17.3 14.7 38.1 34.9 49.3 48 6.1 7.2 13.9 15.9 17.3 19.5 10.7 11.5 44.4 58.6 55.1 77.1 1.1 1.9 5.3 9 9.3 15.7l7.3 12.3h77.8c71.8 0 77.9-.1 77.9-1.7 0-.9-2.1-5.2-4.7-9.7-2.5-4.5-6.9-12.4-9.6-17.6-9.8-18.6-39.8-64.7-55.6-85.5-6.8-9-21.7-26.9-29.5-35.4-11.2-12.3-48.6-50-54.6-55-3-2.5-9.2-7.8-13.7-11.8-8.9-7.8-26.8-21.3-48.3-36.4-70.3-49.5-141.4-81.8-221.5-100.8-19.3-4.5-51.6-10.6-65-12.1-4.9-.6-17.1-2-27-3.1-15.5-1.9-24.6-2.2-66-2.4-26.4-.1-49.8-.1-52 .1"/><path d="M674.5 479.7c-33 1.9-59.4 5.2-83 10.2-42.3 9-53.3 12.1-79.7 22.6-54.9 21.8-59.3 24-98.8 49-36.5 23.2-53.2 36-82.5 63.4-21 19.7-29.7 29.2-52.7 57.3-35.2 43.2-65.5 96.7-83.3 146.8-6.6 18.6-16.4 49.2-17.9 56-.9 4.1-2.8 12.7-4.2 19-7 31.2-10.4 64.2-11.1 105-.6 33.3.7 57.8 4.2 79 .7 4.7 1.6 11.4 2 15s1.7 10.8 3 16 2.8 12.2 3.5 15.5c3.8 20 16.3 59.7 29 92 1.7 4.4 7.3 16.5 12.5 27 33 66.8 85.6 133 142 178.6 32 25.9 65.8 47.4 106 67.3 32.1 16 52.6 23.8 95.5 36.4 9.9 2.9 34.5 8.2 54.6 11.8 21.3 3.8 74.3 7.2 96.4 6.3 27.3-1.2 50.3-2.9 58.5-4.4 4.4-.8 11.8-1.9 16.5-2.5 13.3-1.7 59.4-12.8 77.5-18.6 55.3-17.7 109.2-46.5 167-89.3 9.3-6.9 34.6-29.3 47.5-42.1 10.1-10 29.5-31.4 33.8-37.2 2.4-3.2 4.6-5.8 5-5.8s4.8 3.3 9.7 7.3c5 4 17.3 14 27.5 22.1 10.2 8.2 19.1 15.5 19.9 16.2 1.1 1-.2 3-8 11.9-5.2 5.9-12.6 14.6-16.5 19.3-11.5 14-48.7 48.5-69.9 64.6-4.9 3.8-12.8 9.9-17.5 13.6-16.5 12.9-37.6 27-55 36.7-35.3 19.8-60.2 31.5-98.5 46.2-19.6 7.5-42.9 14.4-65.5 19.6-4.1.9-13.3 3-20.5 4.6-24.5 5.6-59.5 9.8-99.5 11.9-8.5.5-17.7 1.2-20.3 1.6-4.9.7-26.2-.5-55.2-3.2-8.8-.8-18.9-1.7-22.5-2-8.5-.8-29.8-4-38-5.8-3.6-.8-14.1-3.1-23.5-5.1-9.3-2.1-22.2-5.2-28.5-7.1-41.3-12-34.6-9.7-61.5-20.7-20.7-8.4-37.2-15.8-50.7-22.7-10.5-5.3-6.4-.7 6.9 8 34.7 22.6 59.2 36.1 95.8 52.8 38.2 17.4 60.2 25.1 113 39.6 14.9 4.1 54.3 11.7 65.3 12.6 5.7.5 13.6 1.4 17.5 1.9 20.8 3.1 29.9 3.5 73.2 3.9 36.8.2 48.5 0 58.5-1.2 6.9-.9 19.5-2.3 28-3.2 8.5-.8 22.3-2.9 30.5-4.5 8.3-1.5 19.3-3.5 24.5-4.4 11.2-1.9 29.9-6.5 42.5-10.4 5-1.6 15.3-4.8 23-7.1 20.3-6.1 31.8-10.5 64.7-24.6 13.7-5.9 52-25.3 63.8-32.4 2.5-1.5 7.9-4.6 12-7 10.3-6.1 31.7-20.1 42.5-27.9 13-9.4 41.5-32.1 52-41.5 15.3-13.5 46.8-44.7 53.2-52.6 3.3-4.1 7.1-8.4 8.3-9.5 2.6-2.3 22.8-27.2 31.1-38.5 21.8-29.4 35.7-50.6 46.9-71.5 1.4-2.7 5.7-10.3 9.4-16.8 3.8-6.5 9.3-17.3 12.3-24 9.4-21 25.4-60.8 28.9-72 .8-2.6 2-5 2.7-5.1.7-.2 9.3-2.2 19.2-4.5s23.4-5.5 30-7.1 20.8-5 31.5-7.5 24.9-5.9 31.5-7.5 19.9-4.7 29.5-7 22.9-5.4 29.5-7 19.9-4.8 29.5-7c9.6-2.3 22-5.2 27.5-6.5s18.8-4.5 29.5-7 25.8-6.1 33.5-8 21.9-5.2 31.5-7.5c9.6-2.2 22-5.2 27.5-6.5s18.8-4.5 29.5-7c25.4-6 50.5-11.9 65.5-15.5 6.6-1.6 19-4.6 27.5-6.6s21.8-5.1 29.5-7c7.7-1.8 22.8-5.4 33.5-7.9s24.8-5.9 31.2-7.5c6.5-1.6 14-3.2 16.8-3.6 3.2-.4 5-1.1 5-2 0-1.2-94.8-1.4-615.6-1.4-339 0-615.4.4-615.2.9.2.4 2.8 2.8 5.8 5.2 6.9 5.6 36.3 29.3 59.8 48.2 9.7 7.9 20.6 16.7 24.2 19.6 6.2 5.1 18.8 15.2 48 38.8 7.4 5.9 21.6 17.4 31.4 25.3 9.9 8 23 18.5 29.1 23.5 6.2 4.9 14.5 11.7 18.6 15 4.1 3.4 18 14.6 30.9 25 12.9 10.3 24.9 20.1 26.7 21.6l3.2 2.7-5.3 5c-16.4 15.5-65.8 47.6-91.1 59.2-19.5 8.9-59.7 22.8-73.6 25.4-4.6.9-15.6 2.9-24.4 4.6-30 5.6-69.8 7.7-97 5.1-6.6-.7-16.7-1.6-22.5-2.1-11-1-21.2-3.1-52-10.6-17.9-4.4-21.5-5.5-40.5-13.1-31.3-12.5-41.7-18-68-35.3-41.8-27.6-77.9-61.1-104.6-97-13.9-18.6-24.3-35.9-35.6-59-11.8-24.1-18-40.2-25.2-65-9.8-33.5-11.4-41.9-15.2-80.5-3.5-35.4.2-83.6 9.3-119 7.8-30.7 8.2-32.2 12.7-44.9 27.7-78.8 86.9-153.2 157.9-198.4 19.3-12.3 43.6-25 59.1-30.9 60.5-22.8 99.2-30.3 157.3-30.3 51.7 0 87 6.9 141.3 27.7 13.3 5.1 46.1 20.8 57 27.3 16.2 9.7 41.7 28.2 51 37 11.8 11.1 5.9 10 53.1 10 22.8 0 41.4-.2 41.4-.5 0-1.3-4.5-9.4-7.8-14-5.5-7.7-33.8-43.1-40.6-50.9-14.9-16.9-28.6-31.2-34.9-36.3-3.7-3-10-8.6-14-12.4-9.1-8.8-40.5-33.2-56.2-43.6-27.9-18.6-61.2-36.5-86.5-46.6-33.5-13.2-41.5-16.3-52.5-19.9-52.3-17-126.4-26.5-182-23.1M3175 616.6v32.6l-4-3.5c-9-8.3-21.1-12.1-37.5-11.9-20.5.1-35.4 6-48.5 19.2-8.7 8.6-13.6 17.2-17.2 29.5-3.2 11.5-3.2 32.5 0 44 6.8 23.7 23.7 40.5 46.9 46.6 9.3 2.4 27 2.9 35.3 1 7.5-1.8 16.7-6.2 21.8-10.6l4.2-3.7V774h39V584h-40zm-19.7 53.7c6.6 3.1 12.9 9.3 16.4 16.5 2.6 5.3 2.8 6.6 2.8 17.7s-.2 12.4-2.8 17.7c-3.6 7.2-9.7 13.4-16.7 16.7-7.5 3.5-20.1 3.6-27.4.3-11.6-5.3-18.7-15-20.5-28.2-2.8-20.8 7.7-38.5 25.6-43 6-1.5 16.7-.4 22.6 2.3M3337 679v95h39v-14.1l4.3 3.4c10.1 8.3 21.8 12 38.2 12 13.1-.1 23.1-2.4 34-8.1 9.9-5.1 20.8-16.3 26.2-26.7 6.4-12.5 7.7-18.5 7.7-36s-1.3-23.5-7.7-36c-2.9-5.7-6.2-10.1-11.6-15.5-13-13-28.4-19.2-48-19.3-15.7-.1-26.5 3.1-36.3 10.6l-4.8 3.7v-64h-41zm87.5-9.4c7.1 2.5 15.4 11 18.5 18.9 1.8 4.8 2.3 7.9 2.3 16 0 13.3-2.4 19.8-10.2 27.6-7.1 7-13.2 9.4-24.6 9.4-6.7 0-8.9-.5-13.7-2.8-7.1-3.5-14-11-16.9-18.5-3.2-8.1-3.2-23.3-.1-31.3 3.9-9.9 12.5-17.9 22.2-20.6 5.6-1.6 15.8-1 22.5 1.3M2231 592c-22.5 3.2-42.5 13.3-57.6 29.3-21.7 22.7-29.3 56.5-20.4 89.5 7.7 28.1 30.3 51.1 59.5 60.5 11.9 3.9 19.5 5 34.5 4.9 28.6 0 51.6-8.8 68.3-25.9l5.8-6-13.6-12.7-13.6-12.6-6.5 5.8c-12.6 11.6-24.1 15.7-41.9 14.9-13.6-.5-22-3.4-32-11-22.1-16.7-27.9-50.3-13-75.2 4.7-7.7 8.6-11.8 15.9-16.6 7.6-5 14.5-7.5 24.3-8.9 17.6-2.4 34.8 3.2 47.6 15.5 2.7 2.5 5.2 4.5 5.7 4.3.4-.2 6.7-5.7 13.8-12.2l13.1-12-2.1-2.8c-2.7-3.9-12.2-11.7-19.5-16.1-8-4.9-19.1-9.2-28.8-11.2-9.6-2-30.4-2.7-39.5-1.5M2799 622v17h-22v31h22v33.3c0 35.8.4 39.7 5.4 49.6 5.3 10.3 16.8 18.4 30.1 21.1 8.2 1.8 24.6 1.5 32.8-.4 7.4-1.7 14.5-5 15.3-7 .4-1-8.9-27.2-10.1-28.4-.2-.2-2.2.6-4.6 1.8-2.3 1.2-6.8 2.4-9.8 2.7-7.4.6-13.6-2.5-16.5-8.2-2-3.7-2.1-6-2.4-34.3l-.3-30.2h35.1v-31h-35v-34h-40zM2427.3 634c-12.5 1.3-23.5 5.8-31.5 13l-4.8 4.2V635h-39v139h41v-37.4c0-35.1.1-37.8 2.1-44.1 1.7-5.5 3.1-7.8 7.3-12.1 6.7-6.7 14.6-9.4 27.2-9.4h8.4v-19c0-17.5-.1-19-1.7-18.9zM2518.8 634.1c-19.2 2-37.7 12-48.4 26.2-10.3 13.7-14.4 26.3-14.4 44.2 0 21 5.7 35.3 19.6 49.2 12.8 12.7 27.8 19.3 49.1 21.3 19.1 1.8 39-1.9 51.8-9.5 6-3.6 14.5-11.1 14.5-12.8 0-.5-4.8-6-10.6-12.3l-10.6-11.4-4.2 3.5c-15.2 12.4-40.6 13.5-56 2.5-5.7-4.2-10-10-12-16.8l-.7-2.2H2600l.6-2.6c1-4.1-.3-23.3-2.1-29.9-9.2-33.9-40.9-53.5-79.7-49.4m25.6 33.8c6.5 3.2 12.2 9 15.2 15.4 4.3 9.4 6.9 8.7-30.5 8.7h-32.9l1-3.8c2.8-10.2 10.2-18 20.7-21.9 6-2.2 20.6-1.3 26.5 1.6M2673 634.1c-16.1 1.6-37.6 8.6-44.9 14.6l-2.4 2 7.2 13.9c4 7.6 7.5 14.1 7.7 14.3s1.2-.3 2.1-1.2c3.6-3.1 17-8.6 25.2-10.3 23.4-4.6 40.5 3.3 42.7 20l.6 4.4-24.8.4c-21 .5-26.1.8-32.6 2.6-15.1 4.1-24.5 11.1-29.6 22-2.4 5.1-2.7 6.9-2.7 16.7 0 10.5.2 11.4 3.3 17.7 7.7 15.8 24.2 24.1 47.7 24.1 17.3 0 27.9-3.5 36.8-12.1l4.7-4.6V774h38.1l-.3-47.8-.3-47.7-2.7-7.7c-7.5-22.4-24.2-34.1-52.4-36.8-11.9-1.1-11.2-1.1-23.4.1m38 89.3c0 6.7-.3 7.8-3.2 12.2-6.1 9.1-20 14-32.4 11.4-4.8-1-6.7-2.1-10.1-5.5-3.9-3.8-4.3-4.7-4.3-9.1 0-8.5 4.6-13.4 14.3-15.4 2.3-.4 11.3-.8 20-.9l15.7-.1zM2959.8 634.1c-19.2 2-37.7 12-48.4 26.2-10.3 13.7-14.4 26.3-14.4 44.2 0 21 5.7 35.3 19.6 49.2 12.8 12.7 27.8 19.3 49.1 21.3 19.1 1.8 39-1.9 51.8-9.5 6-3.6 14.5-11.1 14.5-12.8 0-.5-4.8-6-10.6-12.3l-10.6-11.4-4.2 3.5c-15.2 12.4-40.6 13.5-56 2.5-5.7-4.2-10-10-12-16.8l-.7-2.2H3041l.6-2.6c1-4.1-.3-23.3-2.1-29.9-9.2-33.9-40.9-53.5-79.7-49.4m25.6 33.8c6.5 3.2 12.2 9 15.2 15.4 4.3 9.4 6.9 8.7-30.5 8.7h-32.9l1-3.8c2.8-10.2 10.2-18 20.7-21.9 6-2.2 20.6-1.3 26.5 1.6M3494.3 636.2c.3.7 13.6 31.8 29.7 69.1 20.8 48.4 29 68.5 28.6 70.1-1.1 4.3-7.2 11.9-11.1 14-5.9 3.1-15.2 2.8-23-.8-3.3-1.5-6.7-3.4-7.7-4.3s-2-1.4-2.1-1.2c-1.1 1.4-14.7 28.2-14.7 29 0 1.8 9.5 7 17.5 9.5 16.4 5.2 34.6 4.1 49.1-3.1 8.5-4.1 17.4-13.1 22.7-22.7 3-5.4 68.7-158.7 68.7-160.3 0-.3-8.9-.4-19.7-.3l-19.8.3-18.7 45c-10.3 24.7-18.9 45.4-19.1 45.9-.1.4-8.8-19.8-19.2-45l-19-45.9-21.4-.3c-16.9-.2-21.2 0-20.8 1"/><path d="M1557.2 884.1c-33.8 3.2-61.7 22-74.7 50.3-9.5 20.4-10.7 44.5-3.4 65.9 4.6 13.4 9.9 22 19.7 32.1 19.4 19.9 48.9 30 78.3 26.7 20-2.2 36.4-7.7 50.1-16.9l6.8-4.5V969h-32.1l.2 26.7.1 26.8-5.5 2.2c-9.8 4-16.8 5.3-27.9 5.4-11 0-15.1-.7-24.8-4.2-16.4-6-29.7-21.2-34-38.9-7.6-31.8 7.6-61.1 36.7-70.6 8-2.6 10.1-2.9 22.3-2.9 12.6.1 14 .3 21.7 3.2q12.75 4.8 21 12.6l3.2 3 3.8-3.5c2.1-1.9 6.9-6.4 10.8-10.1l7-6.5-2.5-2.7c-8.4-9.1-24.2-18.2-38.1-21.9-7.6-2.1-27.4-5-29.9-4.4-.3 0-4.2.4-8.8.9M1264.7 886.7c-.4.3-.7 38.8-.7 85.5v84.8h122v-28h-89V886h-15.8c-8.7 0-16.2.3-16.5.7M1409 971.5v85.5h33V886h-33zM1674 971.5v85.5h33l-.2-36-.3-36 43.3-.2 43.2-.3v72.5h33V886h-33v70h-86.5l.3-35 .3-35H1674zM1848 900v14h56v143h33V914h56v-28h-145zM2236 896.6c-1.4.2-5.6.9-9.5 1.5-35.1 5.7-64.3 31.2-73.5 64.1-4.5 15.9-4.6 35.7-.4 52.3 2.3 9.1 9.7 23.4 16.4 31.9 35.1 44.1 110.8 47.3 151.1 6.4 18.7-19 27.2-44.4 24.8-73.7-3.4-40-32.7-71.8-74.3-80.7-6.9-1.5-29.6-2.7-34.6-1.8m26.9 38c20.4 5.7 34.9 22 38.7 43.4 2.4 13.4.7 25.3-5.4 37.9-6.4 13.2-19.4 23.7-34.2 27.6-7 1.9-21.9 1.9-29 0-18.8-5-33-19-38.6-38-2.6-9-2.5-25 .3-34 9.2-29.4 38.5-45.2 68.2-36.9M2458 896.6c-1.4.2-5.6.9-9.5 1.5-35.1 5.7-64.3 31.2-73.5 64.1-4.5 15.9-4.6 35.7-.4 52.3 2.3 9.1 9.7 23.4 16.4 31.9 35.1 44.1 110.8 47.3 151.1 6.4 18.7-19 27.2-44.4 24.8-73.7-3.4-40-32.7-71.8-74.3-80.7-6.9-1.5-29.6-2.7-34.6-1.8m26.9 38c20.4 5.7 34.9 22 38.7 43.4 2.4 13.4.7 25.3-5.4 37.9-6.4 13.2-19.4 23.7-34.2 27.6-7 1.9-21.9 1.9-29 0-18.8-5-33-19-38.6-38-2.6-9-2.5-25 .3-34 9.2-29.4 38.5-45.2 68.2-36.9M2680 896.6c-1.4.2-5.6.9-9.5 1.5-35.1 5.7-64.3 31.2-73.5 64.1-4.5 15.9-4.6 35.7-.4 52.3 2.3 9.1 9.7 23.4 16.4 31.9 35.1 44.1 110.8 47.3 151.1 6.4 18.7-19 27.2-44.4 24.8-73.7-3.4-40-32.7-71.8-74.3-80.7-6.9-1.5-29.6-2.7-34.6-1.8m26.9 38c20.4 5.7 34.9 22 38.7 43.4 2.4 13.4.7 25.3-5.4 37.9-6.4 13.2-19.4 23.7-34.2 27.6-7 1.9-21.9 1.9-29 0-18.8-5-33-19-38.6-38-2.6-9-2.5-25 .3-34 9.2-29.4 38.5-45.2 68.2-36.9M4021.3 897.1c-34.2 4.4-63.4 25.2-75.4 53.8-10.5 25-9.8 56.3 1.7 79.4 12.9 25.8 35.9 42.9 66 49.2 10.8 2.3 33 2.3 45.4.1 16.2-2.9 34.3-9.9 45.8-17.8l4.2-2.9V986h-39v52.1l-4.7 2c-11.6 4.9-29.4 6.4-42.2 3.4-16.7-4-31.1-16.4-37.6-32.3-3.1-7.7-4.9-20-4-28.1 3.3-30.9 25.9-50.6 58-50.4 16 .2 29 5.3 42 16.6l4 3.5 13-12.1c7.1-6.7 13.1-12.7 13.3-13.3.3-1.3-9-10.1-15.4-14.5-19-13.1-48.5-19.3-75.1-15.8M2896.3 911.7c.4 7.1 1 23.5 1.3 36.5l.7 23.8h14.9c11.2 0 14.8-.3 14.8-1.3 0-.6.7-16.5 1.5-35.2s1.5-34.6 1.5-35.3c0-.9-4.2-1.2-17.6-1.2h-17.7zM2948.4 902.2c.3 1.8.8 13.2 1.1 25.3s.8 27.1 1.1 33.2l.7 11.3h29.299999999999997l1.2-33.3c.7-18.2 1.2-34.7 1.2-36.5V899h-35.1zM3024 988.5v89.5h42V899h-42zM3114 988.4v89.6h45.8c48.6 0 57.4-.6 71.7-5.1 21.1-6.5 37.1-18 48-34.4 9-13.6 13.1-26.5 14.2-44.5 2.6-45.3-22.6-79.6-67.2-91.7l-10-2.7-51.2-.4-51.3-.3zm97.4-52.4c10.5 2.7 16.9 6.3 24.7 14 10 9.9 14.9 22.3 14.9 38 0 22.2-10.4 40.1-28.2 48.5-11.5 5.5-18.1 6.5-44 6.5H3156V934h23.8c20.5 0 25 .3 31.6 2M3331 988.5v89.5h139v-34h-97v-40h82v-33h-82v-38h93v-34h-135zM3525 987.6c-21.7 48.7-39.6 89-39.8 89.5s8.9.9 21.5.9h21.9l7.8-19 7.8-19 41.1.2 41 .3 7.6 18.5 7.7 18.5 22.3.3c21 .2 22.3.1 21.7-1.5-.4-1-18.3-41.3-39.9-89.6l-39.2-87.7h-42zm75.1-10.2c6.6 15.9 11.8 29 11.6 29.2-.2.3-12.3.3-26.9.2l-26.5-.3L3571 976c6.9-16.8 13-31.4 13.4-32.5.7-1.8.9-1.6 2.2 1.5.9 1.9 6.9 16.5 13.5 32.4M3711 988.5v89.5h131v-35h-89V899h-42zM4154 988.5v89.5h42v-50h36.6l17.3 25 17.3 25h22.9c14.4 0 22.8-.4 22.4-1-.3-.5-9.3-13.4-19.9-28.7l-19.4-27.8 5.6-3c7.1-3.7 19.8-16.3 23.5-23.2 9.1-17.1 8.9-43.7-.5-61.6-3.9-7.4-14.1-17.9-22-22.5-3.1-1.8-8.9-4.5-13-5.9-13.8-4.8-19-5.2-67.5-5.3H4154zm83-54.5c14.1 1.8 25.1 9.6 28 19.8 1.5 5.4 1.2 16.3-.5 21.2-2.4 6.7-6.9 11.6-14.3 15.2l-6.6 3.3-23.8.3-23.8.4V933h16.8c9.2 0 20.1.5 24.2 1M4348 988.5v89.5h139v-34h-97v-40h82v-33h-82v-38h93v-34h-135zM4525 988.5v89.5h139v-34h-97v-40h82v-33h-82v-38h93v-34h-135zM4703 988.5v89.5h41l.2-53.4.3-53.4 43.9 53.4 43.8 53.4h34.8V899h-42l-.2 52.8-.3 52.9-43-52.6-43.1-52.6-17.7-.3-17.7-.2zM2483.3 1203.1c-39.5 5.1-70.5 30.9-79.8 66.5-5.7 21.5-3.2 48 6.1 66.7 12.9 25.8 35.9 42.9 66 49.2 10.8 2.3 33 2.3 45.4.1 16.2-2.9 34.3-9.9 45.8-17.8l4.2-2.9V1292h-39v52.1l-4.7 2c-11.6 4.9-29.4 6.4-42.2 3.4-16.7-4-31.1-16.4-37.6-32.3-8.7-21.4-3.7-47.4 12-62.8 10.9-10.7 24.6-15.8 42-15.7 16 .2 29 5.3 42 16.6l4 3.5 13-12.1c7.1-6.7 13.2-12.5 13.4-13 1-2.5-14.7-15.1-26.1-20.8-17.8-8.9-42.5-12.7-64.5-9.8M2161 1294.5v89.5h131v-35h-89v-144h-42zM2322 1294.5v89.5h42v-179h-42zM2615 1294.5v89.5h42v-73h80v73h42v-179h-42v70h-80v-70h-42zM2807 1222v17h58v145h42v-145h57v-34h-157zM2987.3 1217.7c.4 7.1 1 23.5 1.3 36.5l.7 23.8h14.9c11.2 0 14.8-.3 14.8-1.3 0-.6.7-16.5 1.5-35.2s1.5-34.6 1.5-35.3c0-.9-4.2-1.2-17.6-1.2h-17.7zM3039.4 1208.2c.3 1.8.8 13.2 1.1 25.3s.8 27.1 1.1 33.2l.7 11.3h29.299999999999997l1.2-33.3c.7-18.2 1.2-34.7 1.2-36.5v-3.2h-35.1z"/></g></svg>