<?xml version="1.0" standalone="no"?>
<!DOCTYPE svg PUBLIC "-//W3C//DTD SVG 20010904//EN"
 "http://www.w3.org/TR/2001/REC-SVG-20010904/DTD/svg10.dtd">
<svg version="1.0" xmlns="http://www.w3.org/2000/svg"
 width="5000.000000pt" height="2000.000000pt" viewBox="0 0 5000.000000 2000.000000"
 preserveAspectRatio="xMidYMid meet">
<metadata>
Created by potrace 1.15, written by Peter Selinger 2001-2017
</metadata>
<g transform="translate(0.000000,2000.000000) scale(0.100000,-0.100000)"
fill="#2d2d2d" stroke="none">
<path d="M7455 16444 c-133 -13 -331 -36 -336 -40 -3 -2 -64 -10 -135 -19
-172 -20 -281 -41 -599 -116 -242 -58 -849 -258 -1040 -344 -33 -15 -82 -35
-110 -46 -27 -10 -113 -53 -190 -95 -77 -42 -174 -93 -217 -114 -42 -22 -129
-71 -195 -111 -65 -39 -145 -87 -178 -106 -79 -45 -111 -70 -102 -79 4 -5 21
0 36 9 27 16 114 54 346 151 162 69 720 244 830 261 35 6 266 48 486 89 113
22 428 54 651 67 294 17 794 -4 1053 -46 83 -13 175 -26 205 -30 253 -31 770
-161 1086 -274 379 -136 960 -425 1274 -634 149 -99 501 -368 670 -511 173
-147 381 -349 493 -480 61 -72 139 -159 173 -195 107 -115 444 -586 551 -771
11 -19 53 -90 93 -157 l73 -123 778 0 c718 0 779 1 779 17 0 9 -21 52 -47 97
-25 45 -69 124 -96 176 -98 186 -398 647 -556 855 -68 90 -217 269 -295 354
-112 123 -486 500 -546 550 -30 25 -92 78 -137 118 -89 78 -268 213 -483 364
-703 495 -1414 818 -2215 1008 -193 45 -516 106 -650 121 -49 6 -171 20 -270
31 -155 19 -246 22 -660 24 -264 1 -498 1 -520 -1z"/>
<path d="M6745 15203 c-330 -19 -594 -52 -830 -102 -423 -90 -533 -121 -797
-226 -549 -218 -593 -240 -988 -490 -365 -232 -532 -360 -825 -634 -210 -197
-297 -292 -527 -573 -352 -432 -655 -967 -833 -1468 -66 -186 -164 -492 -179
-560 -9 -41 -28 -127 -42 -190 -70 -312 -104 -642 -111 -1050 -6 -333 7 -578
42 -790 7 -47 16 -114 20 -150 4 -36 17 -108 30 -160 13 -52 28 -122 35 -155
38 -200 163 -597 290 -920 17 -44 73 -165 125 -270 330 -668 856 -1330 1420
-1786 320 -259 658 -474 1060 -673 321 -160 526 -238 955 -364 99 -29 345 -82
546 -118 213 -38 743 -72 964 -63 273 12 503 29 585 44 44 8 118 19 165 25
133 17 594 128 775 186 553 177 1092 465 1670 893 93 69 346 293 475 421 101
100 295 314 338 372 24 32 46 58 50 58 4 0 48 -33 97 -73 50 -40 173 -140 275
-221 102 -82 191 -155 199 -162 11 -10 -2 -30 -80 -119 -52 -59 -126 -146
-165 -193 -115 -140 -487 -485 -699 -646 -49 -38 -128 -99 -175 -136 -165
-129 -376 -270 -550 -367 -353 -198 -602 -315 -985 -462 -196 -75 -429 -144
-655 -196 -41 -9 -133 -30 -205 -46 -245 -56 -595 -98 -995 -119 -85 -5 -177
-12 -203 -16 -49 -7 -262 5 -552 32 -88 8 -189 17 -225 20 -85 8 -298 40 -380
58 -36 8 -141 31 -235 51 -93 21 -222 52 -285 71 -413 120 -346 97 -615 207
-207 84 -372 158 -507 227 -105 53 -64 7 69 -80 347 -226 592 -361 958 -528
382 -174 602 -251 1130 -396 149 -41 543 -117 653 -126 57 -5 136 -14 175 -19
208 -31 299 -35 732 -39 368 -2 485 0 585 12 69 9 195 23 280 32 85 8 223 29
305 45 83 15 193 35 245 44 112 19 299 65 425 104 50 16 153 48 230 71 203 61
318 105 647 246 137 59 520 253 638 324 25 15 79 46 120 70 103 61 317 201
425 279 130 94 415 321 520 415 153 135 468 447 532 526 33 41 71 84 83 95 26
23 228 272 311 385 218 294 357 506 469 715 14 27 57 103 94 168 38 65 93 173
123 240 94 210 254 608 289 720 8 26 20 50 27 51 7 2 93 22 192 45 99 23 234
55 300 71 66 16 208 50 315 75 107 25 249 59 315 75 66 16 199 47 295 70 96
23 229 54 295 70 66 16 199 48 295 70 96 23 220 52 275 65 55 13 188 45 295
70 107 25 258 61 335 80 77 19 219 52 315 75 96 22 220 52 275 65 55 13 188
45 295 70 254 60 505 119 655 155 66 16 190 46 275 66 85 20 218 51 295 70 77
18 228 54 335 79 107 25 248 59 312 75 65 16 140 32 168 36 32 4 50 11 50 20
0 12 -948 14 -6156 14 -3390 0 -6154 -4 -6152 -9 2 -4 28 -28 58 -52 69 -56
363 -293 598 -482 97 -79 206 -167 242 -196 62 -51 188 -152 480 -388 74 -59
216 -174 314 -253 99 -80 230 -185 291 -235 62 -49 145 -117 186 -150 41 -34
180 -146 309 -250 129 -103 249 -201 267 -216 l32 -27 -53 -50 c-164 -155
-658 -476 -911 -592 -195 -89 -597 -228 -736 -254 -46 -9 -156 -29 -244 -46
-300 -56 -698 -77 -970 -51 -66 7 -167 16 -225 21 -110 10 -212 31 -520 106
-179 44 -215 55 -405 131 -313 125 -417 180 -680 353 -418 276 -779 611 -1046
970 -139 186 -243 359 -356 590 -118 241 -180 402 -252 650 -98 335 -114 419
-152 805 -35 354 2 836 93 1190 78 307 82 322 127 449 277 788 869 1532 1579
1984 193 123 436 250 591 309 605 228 992 303 1573 303 517 0 870 -69 1413
-277 133 -51 461 -208 570 -273 162 -97 417 -282 510 -370 118 -111 59 -100
531 -100 228 0 414 2 414 5 0 13 -45 94 -78 140 -55 77 -338 431 -406 509
-149 169 -286 312 -349 363 -37 30 -100 86 -140 124 -91 88 -405 332 -562 436
-279 186 -612 365 -865 466 -335 132 -415 163 -525 199 -523 170 -1264 265
-1820 231z"/>
<path d="M31750 13834 l0 -326 -40 35 c-90 83 -211 121 -375 119 -205 -1 -354
-60 -485 -192 -87 -86 -136 -172 -172 -295 -32 -115 -32 -325 0 -440 68 -237
237 -405 469 -466 93 -24 270 -29 353 -10 75 18 167 62 218 106 l42 37 0 -71
0 -71 195 0 195 0 0 950 0 950 -200 0 -200 0 0 -326z m-197 -537 c66 -31 129
-93 164 -165 26 -53 28 -66 28 -177 0 -111 -2 -124 -28 -177 -36 -72 -97 -134
-167 -167 -75 -35 -201 -36 -274 -3 -116 53 -187 150 -205 282 -28 208 77 385
256 430 60 15 167 4 226 -23z"/>
<path d="M33370 13210 l0 -950 195 0 195 0 0 71 0 70 43 -34 c101 -83 218
-120 382 -120 131 1 231 24 340 81 99 51 208 163 262 267 64 125 77 185 77
360 0 175 -13 235 -77 360 -29 57 -62 101 -116 155 -130 130 -284 192 -480
193 -157 1 -265 -31 -363 -106 l-48 -37 0 320 0 320 -205 0 -205 0 0 -950z
m875 94 c71 -25 154 -110 185 -189 18 -48 23 -79 23 -160 0 -133 -24 -198
-102 -276 -71 -70 -132 -94 -246 -94 -67 0 -89 5 -137 28 -71 35 -140 110
-169 185 -32 81 -32 233 -1 313 39 99 125 179 222 206 56 16 158 10 225 -13z"/>
<path d="M22310 14080 c-225 -32 -425 -133 -576 -293 -217 -227 -293 -565
-204 -895 77 -281 303 -511 595 -605 119 -39 195 -50 345 -49 286 0 516 88
683 259 l58 60 -136 127 -136 126 -65 -58 c-126 -116 -241 -157 -419 -149
-136 5 -220 34 -320 110 -221 167 -279 503 -130 752 47 77 86 118 159 166 76
50 145 75 243 89 176 24 348 -32 476 -155 27 -25 52 -45 57 -43 4 2 67 57 138
122 l131 120 -21 28 c-27 39 -122 117 -195 161 -80 49 -191 92 -288 112 -96
20 -304 27 -395 15z"/>
<path d="M27990 13780 l0 -170 -110 0 -110 0 0 -155 0 -155 110 0 110 0 0
-333 c0 -358 4 -397 54 -496 53 -103 168 -184 301 -211 82 -18 246 -15 328 4
74 17 145 50 153 70 4 10 -89 272 -101 284 -2 2 -22 -6 -46 -18 -23 -12 -68
-24 -98 -27 -74 -6 -136 25 -165 82 -20 37 -21 60 -24 343 l-3 302 175 0 176
0 0 155 0 155 -175 0 -175 0 0 170 0 170 -200 0 -200 0 0 -170z"/>
<path d="M24273 13660 c-125 -13 -235 -58 -315 -130 l-48 -42 0 81 0 81 -195
0 -195 0 0 -695 0 -695 205 0 205 0 0 374 c0 351 1 378 21 441 17 55 31 78 73
121 67 67 146 94 272 94 l84 0 0 190 c0 175 -1 190 -17 189 -10 -1 -50 -5 -90
-9z"/>
<path d="M25188 13659 c-192 -20 -377 -120 -484 -262 -103 -137 -144 -263
-144 -442 0 -210 57 -353 196 -492 128 -127 278 -193 491 -213 191 -18 390 19
518 95 60 36 145 111 145 128 0 5 -48 60 -106 123 l-106 114 -42 -35 c-152
-124 -406 -135 -560 -25 -57 42 -100 100 -120 168 l-7 22 515 0 516 0 6 26
c10 41 -3 233 -21 299 -92 339 -409 535 -797 494z m256 -338 c65 -32 122 -90
152 -154 43 -94 69 -87 -305 -87 l-329 0 10 38 c28 102 102 180 207 219 60 22
206 13 265 -16z"/>
<path d="M26730 13659 c-161 -16 -376 -86 -449 -146 l-24 -20 72 -139 c40 -76
75 -141 77 -143 2 -2 12 3 21 12 36 31 170 86 252 103 234 46 405 -33 427
-200 l6 -44 -248 -4 c-210 -5 -261 -8 -326 -26 -151 -41 -245 -111 -296 -220
-24 -51 -27 -69 -27 -167 0 -105 2 -114 33 -177 77 -158 242 -241 477 -241
173 0 279 35 368 121 l47 46 0 -77 0 -77 191 0 190 0 -3 478 -3 477 -27 77
c-75 224 -242 341 -524 368 -119 11 -112 11 -234 -1z m380 -893 c0 -67 -3 -78
-32 -122 -61 -91 -200 -140 -324 -114 -48 10 -67 21 -101 55 -39 38 -43 47
-43 91 0 85 46 134 143 154 23 4 113 8 200 9 l157 1 0 -74z"/>
<path d="M29598 13659 c-192 -20 -377 -120 -484 -262 -103 -137 -144 -263
-144 -442 0 -210 57 -353 196 -492 128 -127 278 -193 491 -213 191 -18 390 19
518 95 60 36 145 111 145 128 0 5 -48 60 -106 123 l-106 114 -42 -35 c-152
-124 -406 -135 -560 -25 -57 42 -100 100 -120 168 l-7 22 515 0 516 0 6 26
c10 41 -3 233 -21 299 -92 339 -409 535 -797 494z m256 -338 c65 -32 122 -90
152 -154 43 -94 69 -87 -305 -87 l-329 0 10 38 c28 102 102 180 207 219 60 22
206 13 265 -16z"/>
<path d="M34943 13638 c3 -7 136 -318 297 -691 208 -484 290 -685 286 -701
-11 -43 -72 -119 -111 -140 -59 -31 -152 -28 -230 8 -33 15 -67 34 -77 43 -10
9 -20 14 -21 12 -11 -14 -147 -282 -147 -290 0 -18 95 -70 175 -95 164 -52
346 -41 491 31 85 41 174 131 227 227 30 54 687 1587 687 1603 0 3 -89 4 -197
3 l-198 -3 -187 -450 c-103 -247 -189 -454 -191 -459 -1 -4 -88 198 -192 450
l-190 459 -214 3 c-169 2 -212 0 -208 -10z"/>
<path d="M15572 11159 c-338 -32 -617 -220 -747 -503 -95 -204 -107 -445 -34
-659 46 -134 99 -220 197 -321 194 -199 489 -300 783 -267 200 22 364 77 501
169 l68 45 0 343 0 344 -160 0 -161 0 2 -267 1 -268 -55 -22 c-98 -40 -168
-53 -279 -54 -110 0 -151 7 -248 42 -164 60 -297 212 -340 389 -76 318 76 611
367 706 80 26 101 29 223 29 126 -1 140 -3 217 -32 85 -32 155 -74 210 -126
l32 -30 38 35 c21 19 69 64 108 101 l70 65 -25 27 c-84 91 -242 182 -381 219
-76 21 -274 50 -299 44 -3 0 -42 -4 -88 -9z"/>
<path d="M12647 11133 c-4 -3 -7 -388 -7 -855 l0 -848 610 0 610 0 0 140 0
140 -445 0 -445 0 0 715 0 715 -158 0 c-87 0 -162 -3 -165 -7z"/>
<path d="M14090 10285 l0 -855 165 0 165 0 0 855 0 855 -165 0 -165 0 0 -855z"/>
<path d="M16740 10285 l0 -855 165 0 165 0 -2 360 -3 360 433 2 432 3 0 -362
0 -363 165 0 165 0 0 855 0 855 -165 0 -165 0 0 -350 0 -350 -432 0 -433 0 3
350 3 350 -166 0 -165 0 0 -855z"/>
<path d="M18480 11000 l0 -140 280 0 280 0 0 -715 0 -715 165 0 165 0 0 715 0
715 280 0 280 0 0 140 0 140 -725 0 -725 0 0 -140z"/>
<path d="M22360 11034 c-14 -2 -56 -9 -95 -15 -351 -57 -643 -312 -735 -641
-45 -159 -46 -357 -4 -523 23 -91 97 -234 164 -319 351 -441 1108 -473 1511
-64 187 190 272 444 248 737 -34 400 -327 718 -743 807 -69 15 -296 27 -346
18z m269 -380 c204 -57 349 -220 387 -434 24 -134 7 -253 -54 -379 -64 -132
-194 -237 -342 -276 -70 -19 -219 -19 -290 0 -188 50 -330 190 -386 380 -26
90 -25 250 3 340 92 294 385 452 682 369z"/>
<path d="M24580 11034 c-14 -2 -56 -9 -95 -15 -351 -57 -643 -312 -735 -641
-45 -159 -46 -357 -4 -523 23 -91 97 -234 164 -319 351 -441 1108 -473 1511
-64 187 190 272 444 248 737 -34 400 -327 718 -743 807 -69 15 -296 27 -346
18z m269 -380 c204 -57 349 -220 387 -434 24 -134 7 -253 -54 -379 -64 -132
-194 -237 -342 -276 -70 -19 -219 -19 -290 0 -188 50 -330 190 -386 380 -26
90 -25 250 3 340 92 294 385 452 682 369z"/>
<path d="M26800 11034 c-14 -2 -56 -9 -95 -15 -351 -57 -643 -312 -735 -641
-45 -159 -46 -357 -4 -523 23 -91 97 -234 164 -319 351 -441 1108 -473 1511
-64 187 190 272 444 248 737 -34 400 -327 718 -743 807 -69 15 -296 27 -346
18z m269 -380 c204 -57 349 -220 387 -434 24 -134 7 -253 -54 -379 -64 -132
-194 -237 -342 -276 -70 -19 -219 -19 -290 0 -188 50 -330 190 -386 380 -26
90 -25 250 3 340 92 294 385 452 682 369z"/>
<path d="M40213 11029 c-342 -44 -634 -252 -754 -538 -105 -250 -98 -563 17
-794 129 -258 359 -429 660 -492 108 -23 330 -23 454 -1 162 29 343 99 458
178 l42 29 0 364 0 365 -195 0 -195 0 0 -260 0 -261 -47 -20 c-116 -49 -294
-64 -422 -34 -167 40 -311 164 -376 323 -31 77 -49 200 -40 281 33 309 259
506 580 504 160 -2 290 -53 420 -166 l40 -35 130 121 c71 67 131 127 133 133
3 13 -90 101 -154 145 -190 131 -485 193 -751 158z"/>
<path d="M28963 10883 c4 -71 10 -235 13 -365 l7 -238 149 0 c112 0 148 3 148
13 0 6 7 165 15 352 8 187 15 346 15 353 0 9 -42 12 -176 12 l-177 0 6 -127z"/>
<path d="M29484 10978 c3 -18 8 -132 11 -253 3 -121 8 -271 11 -332 l7 -113
147 0 146 0 12 333 c7 182 12 347 12 365 l0 32 -175 0 -176 0 5 -32z"/>
<path d="M30240 10115 l0 -895 210 0 210 0 0 895 0 895 -210 0 -210 0 0 -895z"/>
<path d="M31140 10116 l0 -896 458 0 c486 0 574 6 717 51 211 65 371 180 480
344 90 136 131 265 142 445 26 453 -226 796 -672 917 l-100 27 -512 4 -513 3
0 -895z m974 524 c105 -27 169 -63 247 -140 100 -99 149 -223 149 -380 0 -222
-104 -401 -282 -485 -115 -55 -181 -65 -440 -65 l-228 0 0 545 0 545 238 0
c205 0 250 -3 316 -20z"/>
<path d="M33310 10115 l0 -895 695 0 695 0 0 170 0 170 -485 0 -485 0 0 200 0
200 410 0 410 0 0 165 0 165 -410 0 -410 0 0 190 0 190 465 0 465 0 0 170 0
170 -675 0 -675 0 0 -895z"/>
<path d="M35250 10124 c-217 -487 -396 -890 -398 -895 -2 -5 89 -9 215 -9
l219 0 78 190 78 190 411 -2 410 -3 76 -185 77 -185 223 -3 c210 -2 223 -1
217 15 -4 10 -183 413 -399 896 l-392 877 -210 0 -210 0 -395 -886z m751 102
c66 -159 118 -290 116 -292 -2 -3 -123 -3 -269 -2 l-265 3 127 305 c69 168
130 314 134 325 7 18 9 16 22 -15 9 -19 69 -165 135 -324z"/>
<path d="M37110 10115 l0 -895 655 0 655 0 0 175 0 175 -445 0 -445 0 0 720 0
720 -210 0 -210 0 0 -895z"/>
<path d="M41540 10115 l0 -895 210 0 210 0 0 250 0 250 183 0 183 0 173 -250
173 -250 229 0 c144 0 228 4 224 10 -3 5 -93 134 -199 287 l-194 278 56 30
c71 37 198 163 235 232 91 171 89 437 -5 616 -39 74 -141 179 -220 225 -31 18
-89 45 -130 59 -138 48 -190 52 -675 53 l-453 0 0 -895z m830 545 c141 -18
251 -96 280 -198 15 -54 12 -163 -5 -212 -24 -67 -69 -116 -143 -152 l-66 -33
-238 -3 -238 -4 0 306 0 306 168 0 c92 0 201 -5 242 -10z"/>
<path d="M43480 10115 l0 -895 695 0 695 0 0 170 0 170 -485 0 -485 0 0 200 0
200 410 0 410 0 0 165 0 165 -410 0 -410 0 0 190 0 190 465 0 465 0 0 170 0
170 -675 0 -675 0 0 -895z"/>
<path d="M45250 10115 l0 -895 695 0 695 0 0 170 0 170 -485 0 -485 0 0 200 0
200 410 0 410 0 0 165 0 165 -410 0 -410 0 0 190 0 190 465 0 465 0 0 170 0
170 -675 0 -675 0 0 -895z"/>
<path d="M47030 10115 l0 -895 205 0 205 0 2 534 3 534 439 -534 438 -534 174
0 174 0 0 895 0 895 -210 0 -210 0 -2 -528 -3 -529 -430 526 -431 526 -177 3
-177 2 0 -895z"/>
<path d="M24833 7969 c-395 -51 -705 -309 -798 -665 -57 -215 -32 -480 61
-667 129 -258 359 -429 660 -492 108 -23 330 -23 454 -1 162 29 343 99 458
178 l42 29 0 364 0 365 -195 0 -195 0 0 -260 0 -261 -47 -20 c-116 -49 -294
-64 -422 -34 -167 40 -311 164 -376 323 -87 214 -37 474 120 628 109 107 246
158 420 157 160 -2 290 -53 420 -166 l40 -35 130 121 c71 67 132 125 134 130
10 25 -147 151 -261 208 -178 89 -425 127 -645 98z"/>
<path d="M21610 7055 l0 -895 655 0 655 0 0 175 0 175 -445 0 -445 0 0 720 0
720 -210 0 -210 0 0 -895z"/>
<path d="M23220 7055 l0 -895 210 0 210 0 0 895 0 895 -210 0 -210 0 0 -895z"/>
<path d="M26150 7055 l0 -895 210 0 210 0 0 365 0 365 400 0 400 0 0 -365 0
-365 210 0 210 0 0 895 0 895 -210 0 -210 0 0 -350 0 -350 -400 0 -400 0 0
350 0 350 -210 0 -210 0 0 -895z"/>
<path d="M28070 7780 l0 -170 290 0 290 0 0 -725 0 -725 210 0 210 0 0 725 0
725 285 0 285 0 0 170 0 170 -785 0 -785 0 0 -170z"/>
<path d="M29873 7823 c4 -71 10 -235 13 -365 l7 -238 149 0 c112 0 148 3 148
13 0 6 7 165 15 352 8 187 15 346 15 353 0 9 -42 12 -176 12 l-177 0 6 -127z"/>
<path d="M30394 7918 c3 -18 8 -132 11 -253 3 -121 8 -271 11 -332 l7 -113
147 0 146 0 12 333 c7 182 12 347 12 365 l0 32 -175 0 -176 0 5 -32z"/>
</g>
</svg>
