<svg xmlns="http://www.w3.org/2000/svg" width="666.667" height="666.667" version="1.0" viewBox="0 0 500 500"><path d="M286 40.5V48h2.9c4.6 0 14.6 3.5 20.1 7 10.2 6.5 16.9 16.9 19 29.3l1.2 6.7H344v-3.8c0-5.8-2.8-16-6.3-23.1-8.2-16.9-29.6-31-46.9-31.1H286z"/><path d="M48.2 55.3C43.4 57.1 38.3 61.6 36 66c-1.9 3.8-2 5.9-2 53 0 52.8 0 53.2 5.3 58.8 4.5 4.9 9.4 6.5 21.2 7l11 .5 9.3 11.2C94.8 213.3 94.5 213 99 213c3.9 0 4.2-.3 15.6-14l11.7-14h29.5l.4 17.8c.3 17.6.3 17.9 3.1 22 1.5 2.3 4.6 5.4 6.9 6.9l4.1 2.8 26.1.3 26.1.4 11.5 13.9c6.6 8.1 12.5 14.2 13.8 14.5 4.5 1.2 6.8-.6 18.2-14.5l11.5-13.9 26.1-.4 26.1-.3 4.1-2.8c6.7-4.4 9.4-9.4 10-18.2l.5-7.5h36.2l9.8 12c14.1 17 14.1 17 18 17s5.3-1.4 19.7-18.8l8.4-10.2h6.6c8.5 0 15.5-3.3 19.6-9.2l2.9-4.1v-74.5l-3-4.3c-1.6-2.3-5-5.3-7.4-6.6l-4.4-2.3h-63.9c-61.6 0-64 .1-67.7 2-7.6 3.8-12.1 11.8-12.1 21.4v4.6h-57v-31.5c0-29.5-.1-31.8-2-35.4-2.4-4.8-7.9-9.5-12.9-11-5.5-1.6-182.3-1.4-186.9.2m184.9 16.6c1.8 2.2 1.9 4.5 1.9 47.7 0 44.1-.1 45.5-2 47.4-2 2-3.3 2-56.4 2-30.1 0-55.5.4-56.8.9s-6.3 5.9-11.3 12c-4.9 6-9.3 11-9.6 11-.4.1-4.4-4.4-9-10C78 168.5 79 169 64.9 169c-10.6 0-12.1-.2-13.9-2-1.9-1.9-2-3.3-2-47.1 0-29.9.4-45.7 1.1-47 .6-1.1 2-2.4 3.2-2.9s40.6-.8 90-.7l87.9.2zm215.6 50.3 2.3 2.1v62.6l-2.6 2c-2.2 1.8-4.1 2.1-11.1 2.1-9.6 0-8-1.1-21.1 14.7l-7.7 9.4-4-4.8c-2.2-2.6-6.7-7.9-10.1-11.8l-6-7-22.2-.3-22.2-.2v-20.3c0-19.7-.1-20.5-2.5-25.4-3-5.9-7.9-9.6-14.9-11.4l-4.8-1.2.5-4.6c1-8.6-3.2-8.1 64.5-8.1h59.6zM327 151.7c2 2.6 2.1 3.4 1.8 33.5-.3 27.9-.5 30.9-2.1 32.5s-4.4 1.8-29.2 2.1l-27.5.3-9.6 11.4c-5.3 6.3-10 11.5-10.4 11.5s-5.1-5.2-10.4-11.5l-9.6-11.4-27.5-.3c-24.7-.3-27.6-.5-29.2-2.1-1.5-1.5-1.8-4-2.1-17.2l-.3-15.4 31.8-.3c30.3-.3 32-.4 35.8-2.5 8.8-4.7 11.5-10.2 11.5-23.8V149h74.9z"/><path d="M62 90.5V98h16V83H62zM91 90.5V98h15V83H91zM120 90.5V98h15V83h-15zM365 141v8h15v-16h-15zM394 141v8h15v-16h-15zM422 141v8h16v-16h-16zM264 169.5v7.5h15v-15h-15zM293 169.5v7.5h15v-15h-15zM120 223.2c.1 6.4 3 16.9 6.6 24.1 9 17.2 29.6 30.7 47.1 30.7h4.3v-14.6l-6.3-1.1c-18.4-3.1-32.5-17.4-35.8-36.1l-1.1-6.2H120zM86.5 278.4c-23.7 4.5-36.4 21-38.2 49.6-1 16 2.9 27.6 12.9 38.5 4.6 5 4.8 5.5 2.7 5.5-4.2 0-14.7 5.7-19.3 10.5-2.5 2.5-5.7 7.1-7.3 10.3l-2.8 5.7-.3 33.3-.3 33.2H49v-29.3c0-17.5.4-30.7 1.1-33 1.3-4.8 7-11.2 12.3-14 3.2-1.6 6.4-2.2 14.4-2.5 5.6-.2 10.2-.2 10.2.2 0 .3-2.2 6.2-5 13.1s-5 13.9-5 15.7c0 2.6 1.5 4.6 8.8 11.9 6.3 6.5 9.6 9.1 12 9.5 3.2.6 3.8.2 13.3-9.3 6.5-6.5 9.9-10.7 9.9-12.1 0-1.2-2.5-8.3-5.5-15.8l-5.4-13.7 10.8.5c9.5.4 11.4.8 15.4 3.1 2.6 1.5 5.8 4.3 7.3 6.2 4.9 6.4 5.4 10.4 5.4 41.2V465h15.1l-.3-32.8-.3-32.7-2.7-5.7c-1.5-3.2-4.8-8-7.3-10.7-5-5.3-15-11.1-19.3-11.1-2.3 0-2.1-.3 2.2-5.1 6-6.7 11.1-17.1 12.6-25.7 2.1-12.7-1.3-32.1-7.6-42.8-3.1-5.3-10.9-12.6-16.5-15.5-9.8-5-26-6.9-38.4-4.5m25.3 16.1c7.7 2.3 13.2 7 16.9 14.5 1.7 3.6 3.4 7.7 3.7 9.2.6 2.6.1 2.4-11.8-4.7-6.8-4.1-13.5-7.5-14.8-7.5-2.9 0-6.8 2.6-6.8 4.5 0 2.8-6 8.2-12 10.9-5.6 2.5-17.2 5.5-21.4 5.6-1.6 0-1.7-.5-1.1-4.7 1.7-11.2 7.7-21.3 14.9-25 8.5-4.4 22.7-5.6 32.4-2.8m9.9 37.7c10.4 6.2 12.1 7.6 11.7 9.3-4 13.8-22.2 29.1-34.5 28.9-6-.1-16-4.9-22.6-10.8-5.2-4.8-11.9-14.9-10.8-16.5.3-.6 2.1-1.1 3.8-1.1 10.2 0 30.3-7.7 36.1-13.9 1.7-1.7 3.2-3.1 3.5-3.1s6 3.3 12.8 7.2M239 278.2c-8.8 1.2-19.8 6.5-25.4 12.3-8.2 8.4-13.1 21.3-14.2 37.9-1.1 14.9 3.3 27.7 13 38.3 4.4 4.9 4.6 5.3 2.5 5.3-8 0-21.9 11.2-26.5 21.3l-2.9 6.2-.3 32.7-.3 32.8h15l.3-30.8c.3-29.2.4-30.9 2.5-34.7 2.5-4.7 6.5-8.6 11.3-11.1 3.9-1.9 24-3.4 24-1.7 0 .5-2.2 6.5-5 13.3-2.7 6.8-5 13.7-5 15.3 0 2.3 1.7 4.7 8.1 11.2 13 13.4 14.9 13.4 27.9-.1 6.2-6.4 8-9 8-11.2 0-1.6-2.2-8.4-5-15.2-2.7-6.8-5-12.8-5-13.3 0-1.7 20.1-.2 24 1.7 4.8 2.5 8.8 6.4 11.3 11.1 2.1 3.8 2.2 5.5 2.5 34.7l.3 30.8h15l-.3-32.8-.3-32.7-2.9-6.2c-4.6-10.1-18.5-21.3-26.4-21.3-2.2 0-1.9-.5 2.6-5.5 9.7-10.9 13.9-23.3 12.8-38.1-1.6-23.6-10-38.5-25.9-45.9-10.5-4.9-21.7-6.3-35.7-4.3m23.7 16.3c6.3 1.9 12.6 6.4 15.7 11.3 2.6 4.1 6 13.2 5.2 13.9-.2.3-5.8-2.7-12.3-6.6s-12.6-7.1-13.5-7.1c-3.2 0-6.7 2.3-7.9 5.2-2.9 7-15.2 13.3-29.8 15.3l-5.3.7.7-4.3c1.7-10.7 6.3-19.5 12.7-24.2 7.2-5.3 23.8-7.4 34.5-4.2m10 37.7c14 8.3 13.8 7.8 8 17.7-5.3 8.9-18.3 18.6-27.5 20.6-7.2 1.5-23.8-7-30.3-15.6-3.5-4.5-7-11.5-6.2-12.3.4-.3 2-.6 3.7-.6 5.3 0 19.7-3.9 26-7 3.4-1.7 7.7-4.6 9.6-6.4 1.9-1.9 3.7-3.4 3.9-3.5.3-.1 6 3.2 12.8 7.1M394 277.6c-13.6 2-20.8 5.2-28.7 12.7-8.6 8.1-13.2 19.9-14.8 37.7-1.2 14.1 3.6 28.4 13.3 39.1 2.9 3.2 3.8 4.9 2.8 4.9-.8 0-4 .9-7.1 2.1-7.7 2.9-15.6 10.4-19.7 18.7l-3.3 6.7-.3 32.7-.3 32.8H351v-28.3c0-30.8.5-34.8 5.4-41.2 1.5-1.9 4.7-4.7 7.3-6.2 4-2.3 5.9-2.7 15.4-3.1l10.8-.5-5.4 13.7c-3 7.5-5.5 14.6-5.5 15.8 0 1.4 3.4 5.6 9.9 12.1 9.5 9.5 10.1 9.9 13.3 9.3 2.4-.4 5.7-3 12.1-9.5 7.2-7.3 8.7-9.3 8.7-11.9 0-1.8-2.2-8.8-5-15.7-2.7-6.9-5-12.8-5-13.1 0-.4 4.6-.4 10.3-.2 7.9.3 11.1.9 14.3 2.5 5.3 2.8 11 9.2 12.3 14 .7 2.3 1.1 15.5 1.1 33V465h15.1l-.3-33.3-.3-33.2-2.8-5.7c-1.6-3.2-4.8-7.8-7.3-10.3-4.6-4.8-15.1-10.5-19.3-10.5-2.1 0-1.9-.5 2.7-5.5 10-10.9 13.9-22.5 12.9-38.5-1.8-28.8-14.7-45.3-38.6-49.6-7.3-1.3-13.8-1.5-19.1-.8m19.7 16.9c6.4 1.9 10.9 5 14.9 10.2 3.1 4.1 7.1 13.9 6.1 15-.3.2-5.9-2.7-12.4-6.6s-12.7-7.1-13.7-7.1c-3 0-5.5 1.9-8.3 6.3-3.2 5.2-4.5 6.2-11 9.2-5.5 2.5-21.8 6.4-22.8 5.3-1.1-1.1 2.6-14.4 5.5-19.5 5.5-9.6 14.7-14.2 28.6-14.3 4.4 0 10.3.7 13.1 1.5m10.6 38c6.5 3.8 11.7 7.4 11.7 8 0 .5-1.1 3.4-2.5 6.3-4.5 9.7-19.1 21.5-29.1 23.6-3.7.8-13.6-2.2-19.6-6-5.5-3.5-12-10.5-15.2-16.4l-2.7-4.9 2.3-.5c1.3-.3 5.5-1 9.3-1.7 12.2-2 25.8-8.2 31-13.9 1-1.1 2.2-1.9 2.5-1.8.4.2 5.9 3.4 12.3 7.3"/><path d="M62 450.5V465h16v-29H62zM120 450.5V465h15v-29h-15zM214 450.5V465h15v-29h-15zM271 450.5V465h15v-29h-15zM365 450.5V465h15v-29h-15zM422 450.5V465h16v-29h-16z"/></svg>