<svg xmlns="http://www.w3.org/2000/svg" width="666.667" height="666.667" version="1.0" viewBox="0 0 500 500"><path d="M225.5 22.6c-22.1 3.1-36.3 6.3-52.6 12-28.4 9.9-58.6 28.2-78.3 47.5l-7.9 7.7.5 6.3c.4 5.6.8 6.5 4.1 9.5 3.2 3 4.3 3.4 9 3.4 6.1 0 7.1-.6 19.4-11.4 16-14 39.6-27.9 61.3-35.9 34.9-12.9 77.2-15.4 114.5-6.7 34.2 8 67.1 26.1 93.4 51.5 18 17.5 30.6 34.9 41.6 57.7 13.7 28.6 19.5 54.1 19.5 86.3 0 43.5-12.1 81.2-38 117.7-7.6 10.8-25.2 29.3-35.9 38-28.7 23.1-63.9 38.3-100.6 43.4-14.4 1.9-46.3 1.5-59-.9-39.9-7.5-75.9-25.3-102.8-50.6-6.8-6.4-6.9-6.6-6.2-10.6.3-2.2 2.4-8.5 4.6-14 16.7-41.6 51.6-70.5 96.9-80.2 12.5-2.7 68.5-2.7 81 0 28.3 6.1 51.7 19 71 39.4 9.7 10.2 13.4 12.1 19.7 10.3 7.1-2 10.3-6.2 10.3-13.6 0-4.5-.5-5.9-3.8-10.1-15.7-19.7-44.9-39.6-70.3-48l-8.7-2.8 5.9-6.3c7.6-8.1 14.2-19.4 18.1-31.2 3.1-9.2 3.2-10 3.3-27 0-17.3-.1-17.6-3.4-27.2-9.7-28.3-32-49.2-60.6-56.9-11.4-3.1-32.6-3.1-44 0-9 2.4-20.3 7.5-27 12.1-13.9 9.6-26.8 26-32.3 41.3-4.5 12.3-5.5 19.9-5 35.1.5 11.1 1 14.5 3.6 22.6 3.9 11.8 10.4 23 18.2 31.4l6 6.4-4.4 1.1c-7.1 1.8-23.5 8.8-32.1 13.7-27.7 15.9-51.9 42.3-65 70.8L84.6 365l-4.7-7.3c-5.7-8.8-14.6-26.6-18.2-36.2-7.8-20.7-11.4-38.1-12.6-61-.7-12-1.1-14.8-2.9-17.7-5.1-8.2-18.7-8-23.6.2-3.7 6.4-1.2 39.1 4.9 63.4 20.1 79.8 80.8 142.2 160.1 164.5 22.9 6.5 32.1 7.6 61.9 7.6 23.8 0 28.4-.3 39-2.3 48.5-9.1 89.5-30.4 122.9-63.9 33.6-33.5 55-74.7 63.8-122.6 2-10.7 2.3-15.5 2.3-39.2 0-29.3-.7-35.4-6.6-58.2-7.5-29.6-24-62.3-42.9-85.3-31.3-38.3-74.4-66.2-120.3-77.9-21.3-5.5-28.4-6.3-54.7-6.6-13.5-.2-25.8-.1-27.5.1m35.9 123.9c21.2 4.5 39.6 22 45.1 43.1 1.9 7.5 1.9 21.3 0 28.8-3.9 15.1-15.9 30.4-29.2 37.4-7.8 4.1-19.8 7.2-27.8 7.2s-20-3.1-27.8-7.2c-13.3-7-25.3-22.3-29.2-37.4-1.9-7.5-1.9-21.3 0-28.8 7.9-30.1 38.8-49.5 68.9-43.1"/></svg>