<svg version="1.0" xmlns="http://www.w3.org/2000/svg" width="500.000000pt" height="500.000000pt" viewBox="0 0 500.000000 500.000000" preserveAspectRatio="xMidYMid meet">
                            <g transform="translate(0.000000,500.000000) scale(0.100000,-0.100000)" stroke="none">
                            <path d="M2255 4774 c-221 -31 -363 -63 -526 -120 -284 -99 -586 -282 -783
                            -475 l-79 -77 5 -63 c4 -56 8 -65 41 -95 32 -30 43 -34 90 -34 61 0 71 6 194
                            114 160 140 396 279 613 359 349 129 772 154 1145 67 342 -80 671 -261 934
                            -515 180 -175 306 -349 416 -577 137 -286 195 -541 195 -863 0 -435 -121 -812
                            -380 -1177 -76 -108 -252 -293 -359 -380 -287 -231 -639 -383 -1006 -434 -144
                            -19 -463 -15 -590 9 -399 75 -759 253 -1028 506 -68 64 -69 66 -62 106 3 22
                            24 85 46 140 167 416 516 705 969 802 125 27 685 27 810 0 283 -61 517 -190
                            710 -394 97 -102 134 -121 197 -103 71 20 103 62 103 136 0 45 -5 59 -38 101
                            -157 197 -449 396 -703 480 l-87 28 59 63 c76 81 142 194 181 312 31 92 32
                            100 33 270 0 173 -1 176 -34 272 -97 283 -320 492 -606 569 -114 31 -326 31
                            -440 0 -90 -24 -203 -75 -270 -121 -139 -96 -268 -260 -323 -413 -45 -123 -55
                            -199 -50 -351 5 -111 10 -145 36 -226 39 -118 104 -230 182 -314 l60 -64 -44
                            -11 c-71 -18 -235 -88 -321 -137 -277 -159 -519 -423 -650 -708 l-49 -106 -47
                            73 c-57 88 -146 266 -182 362 -78 207 -114 381 -126 610 -7 120 -11 148 -29
                            177 -51 82 -187 80 -236 -2 -37 -64 -12 -391 49 -634 201 -798 808 -1422 1601
                            -1645 229 -65 321 -76 619 -76 238 0 284 3 390 23 485 91 895 304 1229 639
                            336 335 550 747 638 1226 20 107 23 155 23 392 0 293 -7 354 -66 582 -75 296
                            -240 623 -429 853 -313 383 -744 662 -1203 779 -213 55 -284 63 -547 66 -135
                            2 -258 1 -275 -1z m359 -1239 c212 -45 396 -220 451 -431 19 -75 19 -213 0
                            -288 -39 -151 -159 -304 -292 -374 -78 -41 -198 -72 -278 -72 -80 0 -200 31
                            -278 72 -133 70 -253 223 -292 374 -19 75 -19 213 0 288 79 301 388 495 689
                            431z"></path>
                            </g>
                            </svg>