<svg width="170" height="170" viewBox="0 0 170 170" fill="none" xmlns="http://www.w3.org/2000/svg">
<g clip-path="url(#clip0)">
<path d="M 167.7 6.5 C 162.8 1.6 153 4.4 136.9 15.2 C 123.2 24.5 106.8 38.4 90.6 54.6 C 66.7 78.5 48.5 102 42.5 116.5 C 41.5 116.1 40.4 115.8 39.4 115.6 C 33.1 114.4 26.3 116 20.7 120 C 12.7 125.7 10.5 133.9 10.2 135.3 C 8.5 141.6 5.3 147.6 1 152.7 C -0.4 154.4 -0.3 156.8 1.3 158.3 C 6.9 163.3 14.1 165.8 21.6 165.8 C 28.8 165.8 36.3 163.5 42.9 158.8 C 46 156.6 48.3 154.1 48.8 153.6 C 54.4 147.6 56.7 139.7 55.6 132.5 C 69.8 127.4 94.6 108.5 119.6 83.5 C 135.7 67.4 149.7 51 158.9 37.3 C 169.8 21.1 172.6 11.4 167.7 6.5 Z M 43 148.2 C 42.7 148.5 40.8 150.5 38.3 152.3 C 29.1 158.9 17.8 159.6 9.6 154.6 C 13.4 149.3 16.3 143.4 17.9 137.2 V 137.2 C 17.9 137.2 18 137.1 18 137 C 18 137 19.4 130.7 25.3 126.4 C 29.1 123.7 33.7 122.6 37.8 123.4 C 41.2 124.1 44.1 126 45.9 128.9 C 49.4 134.5 48.2 142.6 43 148.2 Z M 52.9 125.1 C 52.8 124.9 51.6 122.5 49.3 120.7 C 51.3 115.5 55.4 108.5 61.2 100.5 L 73.7 112.9 C 64.9 119.2 57.7 123.3 52.9 125.1 Z M 80.1 108.1 L 66 94.1 C 68.5 91 71.1 87.7 73.9 84.4 L 89.8 100.3 C 86.4 103.1 83.2 105.8 80.1 108.1 Z M 151.1 34.6 C 142.2 47.5 129 62.9 114 77.9 C 107.7 84.2 101.6 90 95.8 95.1 L 79.1 78.4 C 84.4 72.4 90.2 66.3 96.3 60.2 C 111.3 45.2 126.6 32 139.6 23 C 155.5 12 161 12 162 12.2 C 162.2 13.2 162.1 18.7 151.1 34.6 Z" fill="black"/>
<path d="M 39.6 137.5 C 37.7 136.4 35.3 137.1 34.2 139.1 C 34.1 139.3 34 139.4 33.8 139.6 C 33.5 139.9 32.5 140.9 31.5 141.6 C 30 142.7 28.3 143.5 26.6 143.9 C 24.5 144.5 23.2 146.6 23.8 148.8 C 24.2 150.5 25.8 151.7 27.6 151.7 C 27.9 151.7 28.3 151.7 28.6 151.6 C 31.3 150.9 33.8 149.7 36.1 148 C 37.6 147 39.6 145 39.6 145 C 40.2 144.4 40.7 143.7 41.2 142.9 C 42.2 141 41.5 138.6 39.6 137.5 Z" fill="black"/>
</g>
<defs>
<clipPath id="clip0">
<rect width="170" height="170" fill="white"/>
</clipPath>
</defs>
</svg>
