<svg version="1.0" xmlns="http://www.w3.org/2000/svg" width="500.000000pt" height="500.000000pt" viewBox="0 0 500.000000 500.000000" preserveAspectRatio="xMidYMid meet">
                                    <g transform="translate(0.000000,500.000000) scale(0.100000,-0.100000)" stroke="none">
                                    <path d="M2860 4595 l0 -75 29 0 c46 0 146 -35 201 -70 102 -65 169 -169 190
                                    -293 l12 -67 74 0 74 0 0 38 c0 58 -28 160 -63 231 -82 169 -296 310 -469 311
                                    l-48 0 0 -75z"></path>
                                    <path d="M482 4447 c-48 -18 -99 -63 -122 -107 -19 -38 -20 -59 -20 -530 0
                                    -528 0 -532 53 -588 45 -49 94 -65 212 -70 l110 -5 93 -112 c140 -168 137
                                    -165 182 -165 39 0 42 3 156 140 l117 140 148 0 147 0 4 -178 c3 -176 3 -179
                                    31 -220 15 -23 46 -54 69 -69 l41 -28 261 -3 261 -4 115 -139 c66 -81 125
                                    -142 138 -145 45 -12 68 6 182 145 l115 139 261 4 261 3 41 28 c67 44 94 94
                                    100 182 l5 75 181 0 181 0 98 -120 c141 -170 141 -170 180 -170 39 0 53 14
                                    197 188 l84 102 66 0 c85 0 155 33 196 92 l29 41 0 373 0 372 -30 43 c-16 23
                                    -50 53 -74 66 l-44 23 -639 0 c-616 0 -640 -1 -677 -20 -76 -38 -121 -118
                                    -121 -214 l0 -46 -285 0 -285 0 0 315 c0 295 -1 318 -20 354 -24 48 -79 95
                                    -129 110 -55 16 -1823 14 -1869 -2z m1849 -166 c18 -22 19 -45 19 -477 0 -441
                                    -1 -455 -20 -474 -20 -20 -33 -20 -564 -20 -301 0 -555 -4 -568 -9 -13 -5 -63
                                    -59 -113 -120 -49 -60 -93 -110 -96 -110 -4 -1 -44 44 -90 100 -119 144 -109
                                    139 -250 139 -106 0 -121 2 -139 20 -19 19 -20 33 -20 471 0 299 4 457 11 470
                                    6 11 20 24 32 29 12 5 406 8 900 7 l879 -2 19 -24z m2156 -503 l23 -21 0 -313
                                    0 -313 -26 -20 c-22 -18 -41 -21 -111 -21 -96 0 -80 11 -211 -147 l-77 -94
                                    -40 48 c-22 26 -67 79 -101 118 l-60 70 -222 3 -222 2 0 203 c0 197 -1 205
                                    -25 254 -30 59 -79 96 -149 114 l-48 12 5 46 c10 86 -32 81 645 81 l596 0 23
                                    -22z m-1217 -295 c20 -26 21 -34 18 -335 -3 -279 -5 -309 -21 -325 -16 -16
                                    -44 -18 -292 -21 l-275 -3 -96 -114 c-53 -63 -100 -115 -104 -115 -4 0 -51 52
                                    -104 115 l-96 114 -275 3 c-247 3 -276 5 -292 21 -15 15 -18 40 -21 172 l-3
                                    154 318 3 c303 3 320 4 358 25 88 47 115 102 115 238 l0 95 374 0 375 0 21
                                    -27z"></path>
                                    <path d="M620 4095 l0 -75 80 0 80 0 0 75 0 75 -80 0 -80 0 0 -75z"></path>
                                    <path d="M910 4095 l0 -75 75 0 75 0 0 75 0 75 -75 0 -75 0 0 -75z"></path>
                                    <path d="M1200 4095 l0 -75 75 0 75 0 0 75 0 75 -75 0 -75 0 0 -75z"></path>
                                    <path d="M3650 3590 l0 -80 75 0 75 0 0 80 0 80 -75 0 -75 0 0 -80z"></path>
                                    <path d="M3940 3590 l0 -80 75 0 75 0 0 80 0 80 -75 0 -75 0 0 -80z"></path>
                                    <path d="M4220 3590 l0 -80 80 0 80 0 0 80 0 80 -80 0 -80 0 0 -80z"></path>
                                    <path d="M2640 3305 l0 -75 75 0 75 0 0 75 0 75 -75 0 -75 0 0 -75z"></path>
                                    <path d="M2930 3305 l0 -75 75 0 75 0 0 75 0 75 -75 0 -75 0 0 -75z"></path>
                                    <path d="M1200 2768 c1 -64 30 -169 66 -241 90 -172 296 -307 471 -307 l43 0
                                    0 73 0 73 -63 11 c-184 31 -325 174 -358 361 l-11 62 -74 0 -74 0 0 -32z"></path>
                                    <path d="M865 2216 c-237 -45 -364 -210 -382 -496 -10 -160 29 -276 129 -385
                                    46 -50 48 -55 27 -55 -42 0 -147 -57 -193 -105 -25 -25 -57 -71 -73 -103 l-28
                                    -57 -3 -333 -3 -332 76 0 75 0 0 293 c0 175 4 307 11 330 13 48 70 112 123
                                    140 32 16 64 22 144 25 56 2 102 2 102 -2 0 -3 -22 -62 -50 -131 -28 -69 -50
                                    -139 -50 -157 0 -26 15 -46 88 -119 63 -65 96 -91 120 -95 32 -6 38 -2 133 93
                                    65 65 99 107 99 121 0 12 -25 83 -55 158 l-54 137 108 -5 c95 -4 114 -8 154
                                    -31 26 -15 58 -43 73 -62 49 -64 54 -104 54 -412 l0 -283 76 0 75 0 -3 328 -3
                                    327 -27 57 c-15 32 -48 80 -73 107 -50 53 -150 111 -193 111 -23 0 -21 3 22
                                    51 60 67 111 171 126 257 21 127 -13 321 -76 428 -31 53 -109 126 -165 155
                                    -98 50 -260 69 -384 45z m253 -161 c77 -23 132 -70 169 -145 17 -36 34 -77 37
                                    -92 6 -26 1 -24 -118 47 -68 41 -135 75 -148 75 -29 0 -68 -26 -68 -45 0 -28
                                    -60 -82 -120 -109 -56 -25 -172 -55 -214 -56 -16 0 -17 5 -11 47 17 112 77
                                    213 149 250 85 44 227 56 324 28z m99 -377 c104 -62 121 -76 117 -93 -40 -138
                                    -222 -291 -345 -289 -60 1 -160 49 -226 108 -52 48 -119 149 -108 165 3 6 21
                                    11 38 11 102 0 303 77 361 139 17 17 32 31 35 31 3 0 60 -33 128 -72z"></path>
                                    <path d="M2390 2218 c-88 -12 -198 -65 -254 -123 -82 -84 -131 -213 -142 -379
                                    -11 -149 33 -277 130 -383 44 -49 46 -53 25 -53 -80 0 -219 -112 -265 -213
                                    l-29 -62 -3 -327 -3 -328 75 0 75 0 3 308 c3 292 4 309 25 347 25 47 65 86
                                    113 111 39 19 240 34 240 17 0 -5 -22 -65 -50 -133 -27 -68 -50 -137 -50 -153
                                    0 -23 17 -47 81 -112 130 -134 149 -134 279 1 62 64 80 90 80 112 0 16 -22 84
                                    -50 152 -27 68 -50 128 -50 133 0 17 201 2 240 -17 48 -25 88 -64 113 -111 21
                                    -38 22 -55 25 -347 l3 -308 75 0 75 0 -3 328 -3 327 -29 62 c-46 101 -185 213
                                    -264 213 -22 0 -19 5 26 55 97 109 139 233 128 381 -16 236 -100 385 -259 459
                                    -105 49 -217 63 -357 43z m237 -163 c63 -19 126 -64 157 -113 26 -41 60 -132
                                    52 -139 -2 -3 -58 27 -123 66 -65 39 -126 71 -135 71 -32 0 -67 -23 -79 -52
                                    -29 -70 -152 -133 -298 -153 l-53 -7 7 43 c17 107 63 195 127 242 72 53 238
                                    74 345 42z m100 -377 c140 -83 138 -78 80 -177 -53 -89 -183 -186 -275 -206
                                    -72 -15 -238 70 -303 156 -35 45 -70 115 -62 123 4 3 20 6 37 6 53 0 197 39
                                    260 70 34 17 77 46 96 64 19 19 37 34 39 35 3 1 60 -32 128 -71z"></path>
                                    <path d="M3940 2224 c-136 -20 -208 -52 -287 -127 -86 -81 -132 -199 -148
                                    -377 -12 -141 36 -284 133 -391 29 -32 38 -49 28 -49 -8 0 -40 -9 -71 -21 -77
                                    -29 -156 -104 -197 -187 l-33 -67 -3 -327 -3 -328 75 0 76 0 0 283 c0 308 5
                                    348 54 412 15 19 47 47 73 62 40 23 59 27 154 31 l108 5 -54 -137 c-30 -75
                                    -55 -146 -55 -158 0 -14 34 -56 99 -121 95 -95 101 -99 133 -93 24 4 57 30
                                    121 95 72 73 87 93 87 119 0 18 -22 88 -50 157 -27 69 -50 128 -50 131 0 4 46
                                    4 103 2 79 -3 111 -9 143 -25 53 -28 110 -92 123 -140 7 -23 11 -155 11 -330
                                    l0 -293 76 0 75 0 -3 333 -3 332 -28 57 c-16 32 -48 78 -73 103 -46 48 -151
                                    105 -193 105 -21 0 -19 5 27 55 100 109 139 225 129 385 -18 288 -147 453
                                    -386 496 -73 13 -138 15 -191 8z m197 -169 c64 -19 109 -50 149 -102 31 -41
                                    71 -139 61 -150 -3 -2 -59 27 -124 66 -65 39 -127 71 -137 71 -30 0 -55 -19
                                    -83 -63 -32 -52 -45 -62 -110 -92 -55 -25 -218 -64 -228 -53 -11 11 26 144 55
                                    195 55 96 147 142 286 143 44 0 103 -7 131 -15z m106 -380 c65 -38 117 -74
                                    117 -80 0 -5 -11 -34 -25 -63 -45 -97 -191 -215 -291 -236 -37 -8 -136 22
                                    -196 60 -55 35 -120 105 -152 164 l-27 49 23 5 c13 3 55 10 93 17 122 20 258
                                    82 310 139 10 11 22 19 25 18 4 -2 59 -34 123 -73z"></path>
                                    <path d="M620 495 l0 -145 80 0 80 0 0 145 0 145 -80 0 -80 0 0 -145z"></path>
                                    <path d="M1200 495 l0 -145 75 0 75 0 0 145 0 145 -75 0 -75 0 0 -145z"></path>
                                    <path d="M2140 495 l0 -145 75 0 75 0 0 145 0 145 -75 0 -75 0 0 -145z"></path>
                                    <path d="M2710 495 l0 -145 75 0 75 0 0 145 0 145 -75 0 -75 0 0 -145z"></path>
                                    <path d="M3650 495 l0 -145 75 0 75 0 0 145 0 145 -75 0 -75 0 0 -145z"></path>
                                    <path d="M4220 495 l0 -145 80 0 80 0 0 145 0 145 -80 0 -80 0 0 -145z"></path>
                                    </g>
                                    </svg>